<?xml version="1.0" encoding="UTF-8"?>
<svg width="160px" height="56px" viewBox="0 0 160 56" version="1.1" xmlns="http://www.w3.org/2000/svg" xmlns:xlink="http://www.w3.org/1999/xlink">
    <!-- Generator: Sketch 60.1 (88133) - https://sketch.com -->
    <title>Group 29</title>
    <desc>Created with Sketch.</desc>
    <g id="Home" stroke="none" stroke-width="1" fill="none" fill-rule="evenodd">
        <g transform="translate(-69.000000, -120.000000)" fill-rule="nonzero" id="Group-3">
            <g transform="translate(69.000000, 50.000000)">
                <g id="Group-6">
                    <g id="Group-29" transform="translate(0.000000, 70.000000)">
                        <path d="M72.0861305,18.0516343 C75.0109027,18.0516343 77.8890452,18.058268 80.7676039,18.0300747 C80.8941706,18.0288308 81.0840205,17.7253375 81.1252381,17.5366907 C81.1714515,17.3260696 81.0927637,17.084353 81.0482156,16.8596352 C80.7301335,15.2480524 80.0340169,13.9014044 78.3840706,13.2807356 C75.409338,12.1617076 71.9237588,14.7480347 72.0861305,18.0516343 M104.721593,21.9593183 L104.721593,10.1574907 C104.68662,10.1504424 104.651231,10.1433941 104.61626,10.1359311 C104.22282,11.6712259 103.829381,13.2065207 103.442187,14.7169391 C102.281021,14.3603759 101.204788,13.8968437 100.083175,13.7222936 C98.9428257,13.5444266 97.7479365,13.5564503 96.5946812,13.6671506 C95.8065539,13.743024 95.2078603,14.3085499 95.0750486,15.1618138 C94.9401552,16.0304185 95.3931305,16.6469411 96.1208889,17.0101381 C97.0464075,17.4720117 98.0014862,17.8895224 98.9761327,18.2365496 C101.13068,19.0031605 103.177812,19.9157136 104.721593,21.9593183 M18.4310274,27.3131564 C16.5991416,22.9576952 16.6803274,18.7311774 18.5267851,14.4673449 C16.6116317,13.8533098 14.7039725,13.6348113 12.7817414,14.1281952 C9.87861867,14.8728318 8.07421114,17.2352704 7.99052727,20.3717828 C7.92183154,22.9601829 8.60212733,25.2629178 10.9440268,26.7356068 C13.2955021,28.2149295 15.8105981,27.9599454 18.4310274,27.3131564 M35.1449039,20.923212 C35.0728775,19.2432187 34.8871909,17.5851998 34.0915695,16.0577826 C33.2909522,14.521244 32.0977284,13.5299152 30.2924881,13.4834791 C28.4156379,13.4357992 27.0000897,14.3085499 26.2144605,15.9516429 C24.6502798,19.2224884 24.6273812,22.5700365 26.2098808,25.8421258 C26.9871833,27.4495625 28.3648447,28.3310199 30.2229597,28.3028266 C32.0340287,28.2754624 33.2376609,27.3040349 34.0645076,25.7869829 C34.8905216,24.2711746 35.06122,22.608595 35.1449039,20.923212 M129.360041,21.162441 C129.372115,19.3215797 129.160615,17.7357027 128.450759,16.2559654 C127.671375,14.6315298 126.466494,13.5386221 124.565496,13.484723 C122.595386,13.4291655 121.170263,14.3893985 120.378804,16.1183154 C118.937026,19.2680953 118.914128,22.4912609 120.357154,25.6447722 C121.144033,27.3633239 122.546675,28.3521649 124.530108,28.299095 C126.466077,28.2476836 127.675539,27.13985 128.469078,25.4980008 C129.163113,24.0626266 129.362955,22.5202834 129.360041,21.162441 M86.9160789,31.8025359 C86.9631251,31.8120718 87.0105875,31.8220224 87.0572174,31.8323877 C87.4868779,30.1449316 87.9165384,28.45789 88.3199696,26.8732568 C89.7321871,27.3355451 91.0478141,27.8293438 92.3992463,28.1908822 C93.7864834,28.5619568 95.2141053,28.7224102 96.645058,28.3720661 C97.506877,28.1610304 98.1830094,27.7418614 98.339136,26.7807992 C98.4769438,25.9337543 98.117228,25.1654849 97.1917093,24.6990505 C96.2903383,24.2446397 95.3377577,23.8801989 94.383928,23.5406346 C92.0840786,22.7209539 89.9790753,21.6346799 88.5264731,19.5815392 C88.5148157,19.5645403 88.4506996,19.5840268 88.4498669,19.5840268 C88.3545256,20.8382172 88.2604333,22.0857738 88.1634266,23.3594508 L72.0599012,23.3594508 C72.1556589,24.385192 72.5082969,25.2127503 73.1373832,25.9179991 C73.9962878,26.881549 75.1066605,27.4275882 76.341518,27.7248625 C78.7258839,28.2986804 81.1110826,28.0843279 83.4850401,27.646916 C84.3127194,27.4939256 85.1241615,27.2538673 85.9805681,27.0444901 C86.2986501,28.6627066 86.6075727,30.2324139 86.9160789,31.8025359 M49.8103989,0 L49.8103989,11.5223815 C52.3987703,8.44598733 55.5479485,7.33317843 59.2554356,8.192247 C63.1506911,9.09443484 64.7827348,12.0323499 65.5475472,15.7787512 C65.7107515,15.4433329 65.8194156,15.2331265 65.9168386,15.0179448 C68.3578265,9.61808523 73.3326455,7.40158882 78.7171408,7.9546764 C83.0295666,8.39789276 85.8968843,10.7089199 87.430256,14.7094761 C87.4631467,14.7940562 87.5114418,14.8724173 87.5564062,14.9511928 C87.565982,14.9677772 87.594293,14.973167 87.6588253,15.0075795 C88.1217929,12.4705909 89.5427533,10.6239252 91.7926422,9.41368329 C93.9730027,8.24117079 96.33447,7.93518981 98.7750416,8.08237578 C100.724751,8.20012456 102.617838,8.5732721 104.418082,9.35149203 C104.497187,9.38548992 104.591696,9.38300227 104.710768,9.40290347 C104.735748,9.10480005 104.757814,8.83654843 104.784044,8.51978762 L112.500863,8.51978762 L112.500863,14.8118844 L112.617437,14.8475408 L112.617437,14.8475408 C112.68072,14.7430594 112.749833,14.6414804 112.806038,14.5332676 C114.726187,10.8395216 117.856214,8.82908547 121.901352,8.1574199 C124.704553,7.69181468 127.474031,7.84273213 130.137343,8.93315217 C132.836877,10.0384982 134.813232,11.9237224 136.2038,14.6738199 L136.2038,8.54176187 L142.867285,8.54176187 C142.988022,9.63010887 143.10876,10.7126513 143.249898,11.9846698 C143.495122,11.6832495 143.643338,11.5057972 143.786558,11.3241987 C147.140158,7.06699986 154.107985,6.70877822 157.547767,10.6268274 C159.068233,12.358232 159.84387,14.4569796 159.89841,16.6850851 C160.032055,22.1280639 159.980012,27.5756034 160,33.0210699 C160,33.0861634 159.965024,33.1516715 159.93255,33.2661035 C159.767264,33.2818585 159.589904,33.3125396 159.412961,33.3125396 C157.240094,33.316271 155.067644,33.2947114 152.896027,33.3287093 C152.325644,33.3378307 152.203657,33.1462817 152.205738,32.6205582 C152.223641,28.2543173 152.233633,23.8876619 152.201159,19.521421 C152.194497,18.6362321 152.110397,17.7199476 151.867256,16.8737319 C151.161564,14.4209087 148.544049,13.413825 146.3283,14.7239874 C144.950222,15.5386929 144.144192,16.7738112 144.136282,18.4019784 C144.120461,21.5120941 144.119813,24.6222098 144.120522,27.7322026 L144.120877,33.2623719 L136.332031,33.2623719 L136.332031,27.0034439 C133.737415,31.676495 129.665633,33.7847785 124.487224,33.849872 C119.279673,33.9153802 115.16126,31.898725 112.508356,27.1858716 L112.508356,33.2677619 L104.786958,33.2677619 L104.786958,30.1660766 C104.648317,30.2000745 104.560887,30.19427 104.532992,30.2319993 C102.726503,32.662019 100.126057,33.5579878 97.2658174,33.8664564 C93.8085493,34.2387747 90.4445408,33.857335 87.2408223,32.409108 C87.0339025,32.3158211 86.7099918,32.3871337 86.4705976,32.4688115 C82.550362,33.8138011 78.5331196,34.1815587 74.4555083,33.4916504 C70.6934809,32.8552265 67.7578839,30.9579786 65.975126,27.5001447 C65.9563907,27.4640738 65.916006,27.4396119 65.8069255,27.3330575 L65.8069255,33.2553236 L58.0060063,33.2553236 L58.0060063,32.4273507 C58.0060063,28.3596278 58.0201618,24.2919051 57.9951815,20.2245968 C57.9893528,19.3112146 57.9214897,18.3837356 57.7499585,17.4881815 C57.3194654,15.2343704 55.7461253,13.9901306 53.6844211,14.1800212 C51.534037,14.378204 49.884507,16.1116817 49.8532817,18.2775959 C49.820391,20.529334 49.8428733,22.7819013 49.8420405,25.0340541 L49.8420405,33.2694203 L42.0923308,33.2694203 L42.0923308,26.9968102 C39.7604235,31.2137919 36.1532737,33.3797061 31.4686421,33.7901685 C26.867278,34.1931678 22.8321331,32.9501719 19.6450681,29.2369392 C19.8028601,30.265168 19.8782173,31.1569907 20.0917985,32.0144008 C20.2445944,32.6280211 20.0206047,32.8340815 19.4947702,32.9928765 C16.8739245,33.7843639 14.2068653,34.0107401 11.4815188,33.7690234 C8.93727916,33.5430619 6.59038362,32.8054736 4.55199431,31.2494483 C1.75795209,29.1158736 0.429834867,26.1870799 0.0892706395,22.7802429 C-0.175520129,20.133383 0.124659343,17.5482997 1.31455245,15.1265722 C3.34211698,11.0008042 6.81687132,8.87386317 11.2550311,8.1578345 C14.048657,7.7071552 16.8210496,7.8858514 19.5551391,8.64624318 C20.0818064,8.79259993 20.2608315,8.99244117 20.1146971,9.55962544 C19.8303384,10.663313 19.6279983,11.7877309 19.347803,13.1132339 C22.4503515,9.07867971 26.5508613,7.74861603 31.2504812,7.95882248 C36.043777,8.17276041 39.7100466,10.2934822 42.0561095,14.5958734 L42.0561095,0 L49.8103989,0 Z M112.513227,0.0052240656 L112.513227,1.84318302 C112.513227,3.15044325 112.511146,4.45770347 112.514061,5.76496369 C112.514893,6.05270191 112.535294,6.31058832 112.105633,6.30853996 C109.688377,6.29732085 107.270704,6.30312537 104.790996,6.30312537 L104.790996,0.0052240656 L112.513227,0.0052240656 Z" id="Fill-1" fill="#222222"></path>
                        <path d="M6.6820233,42.9358366 C8.0776264,42.9358366 9.08306089,43.6561478 9.08306089,44.9016861 C9.08306089,45.9971595 8.06261992,46.7925032 6.6820233,46.7925032 L3.80077819,46.7925032 L3.80077819,42.9358366 L6.6820233,42.9358366 Z M3.80077819,48.2331257 L6.65201033,48.2331257 L8.99302198,52.0747859 L11.0639169,52.0747859 L8.40776907,47.963009 C9.84839163,47.5878469 10.8838391,46.3273022 10.8838391,44.9016861 C10.8838391,42.8758106 9.21811926,41.4501945 6.89211409,41.4501945 L2,41.4501945 L2,52.0747859 L3.80077819,52.0747859 L3.80077819,48.2331257 Z M13.4866305,47.5578339 C13.6967213,46.3423086 14.5971104,45.516952 15.8276422,45.516952 C17.0881869,45.516952 18.048602,46.3573151 18.2286798,47.5578339 L13.4866305,47.5578339 Z M11.7908977,48.1730998 C11.7908977,50.6191568 13.501637,52.3749156 15.8876681,52.3749156 C17.6284204,52.3749156 19.2041013,51.2944487 19.6392894,49.7938002 L18.1086279,49.5687029 C17.8235047,50.4090661 16.8780961,51.0093255 15.8576552,51.0093255 C14.6121169,51.0093255 13.6667084,50.1089364 13.471624,48.7583527 L19.8943996,48.7733592 C19.9094061,48.5932814 19.9244126,48.3681841 19.9244126,48.1881063 C19.9244126,45.8320882 18.2436863,44.1513618 15.8726616,44.1513618 C13.501637,44.1513618 11.7908977,45.8320882 11.7908977,48.1730998 Z M24.6731314,50.9192865 C23.2175023,50.9192865 22.1520419,49.7938002 22.1520419,48.2631387 C22.1520419,46.7174708 23.2175023,45.6069909 24.6731314,45.6069909 C26.1287604,45.6069909 27.1792144,46.7174708 27.1792144,48.2631387 C27.1792144,49.8088067 26.1287604,50.9192865 24.6731314,50.9192865 Z M27.1942208,45.5919844 C26.548942,44.6915953 25.5435075,44.1513618 24.3579952,44.1513618 C22.1220289,44.1513618 20.5313415,45.8771076 20.5313415,48.2631387 C20.5313415,50.6491698 22.1220289,52.3749156 24.3579952,52.3749156 C25.5435075,52.3749156 26.548942,51.8346821 27.1942208,50.934293 L27.1942208,52.0747859 L28.8299277,52.0747859 L28.8299277,44.4514915 L27.1942208,44.4514915 L27.1942208,45.5919844 Z M33.8187502,44.1513618 C31.4927451,44.1513618 29.7970123,45.8771076 29.7970123,48.2631387 C29.7970123,50.6491698 31.4927451,52.3749156 33.8337567,52.3749156 C35.7095673,52.3749156 37.3152612,51.1593903 37.6303974,49.4936705 L36.069723,49.2985862 C35.7996063,50.2740077 34.9142236,50.9793125 33.8337567,50.9793125 C32.4681666,50.9793125 31.4327191,49.8388196 31.4177127,48.2631387 C31.4177127,46.6874578 32.4831731,45.5469649 33.8337567,45.5469649 C34.8842107,45.5469649 35.8146127,46.2522697 36.0547165,47.2426977 L37.6153909,47.0476134 C37.3452742,45.3668871 35.7545868,44.1513618 33.8187502,44.1513618 Z M38.597482,41 L38.597482,52.0747859 L40.2331889,52.0747859 L40.2331889,47.6928923 C40.2331889,46.477367 41.1785974,45.6069909 42.3190903,45.6069909 C43.4595831,45.6069909 44.134875,46.4173411 44.134875,47.5428274 L44.134875,52.0747859 L45.7555753,52.0747859 L45.7555753,47.4077691 C45.7555753,45.516952 44.5550565,44.1513618 42.6642394,44.1513618 C41.7038244,44.1513618 40.7434094,44.6015564 40.2331889,45.3668871 L40.2331889,41 L38.597482,41 Z M47.5780296,52.2848767 C48.178289,52.2848767 48.583464,51.8646951 48.583464,51.2794422 C48.583464,50.7091958 48.178289,50.3040207 47.5780296,50.3040207 C46.9927766,50.3040207 46.5725951,50.7091958 46.5725951,51.2794422 C46.5725951,51.8646951 46.9927766,52.2848767 47.5780296,52.2848767 Z M55.3797343,47.2877172 L60.3919003,47.2877172 L60.3919003,45.9071206 L55.3797343,45.9071206 L55.3797343,42.980856 L60.9921597,42.980856 L60.9921597,41.4501945 L53.6389821,41.4501945 L53.6389821,52.0747859 L61.1422246,52.0747859 L61.1422246,50.5441244 L55.3797343,50.5441244 L55.3797343,47.2877172 Z M62.229361,44.4514915 L62.229361,52.0747859 L63.8650679,52.0747859 L63.8650679,47.6928923 C63.8650679,46.477367 64.8104764,45.6069909 65.9509693,45.6069909 C67.0914621,45.6069909 67.766754,46.4173411 67.766754,47.5428274 L67.766754,52.0747859 L69.3874543,52.0747859 L69.3874543,47.4227756 C69.3874543,45.5319585 68.1719291,44.1513618 66.3111249,44.1513618 C65.3206969,44.1513618 64.3752884,44.6315694 63.8350549,45.4269131 L63.8350549,44.4514915 L62.229361,44.4514915 Z M74.3462639,50.8292476 C72.8906349,50.8292476 71.8251745,49.7487807 71.8251745,48.2631387 C71.8251745,46.7174708 72.8906349,45.6069909 74.3462639,45.6069909 C75.801893,45.6069909 76.8523469,46.7174708 76.8523469,48.2631387 C76.8523469,49.7487807 75.801893,50.8292476 74.3462639,50.8292476 Z M74.3762769,54.4458105 C73.265797,54.4458105 72.275369,53.6804798 72.0202588,52.6300258 L70.5196103,52.8101037 C70.789727,54.5658624 72.4404403,55.8264071 74.4363028,55.8264071 C76.762308,55.8264071 78.4280278,54.4007911 78.4280278,51.9397275 L78.4280278,44.4514915 L76.8073275,44.4514915 L76.8073275,45.486939 C76.1620486,44.6765888 75.2316465,44.1813748 74.0461342,44.1813748 C71.8251745,44.1813748 70.2044741,45.8921141 70.2044741,48.2631387 C70.2044741,50.5741374 71.8251745,52.2248507 74.0461342,52.2248507 C75.1866271,52.2248507 76.1470421,51.7596497 76.792321,50.9492995 L76.792321,51.924721 C76.792321,53.5304149 75.7868865,54.4458105 74.3762769,54.4458105 Z M83.5369023,50.9192865 C82.0812732,50.9192865 81.0158128,49.7938002 81.0158128,48.2631387 C81.0158128,46.7174708 82.0812732,45.6069909 83.5369023,45.6069909 C84.9925313,45.6069909 86.0429852,46.7174708 86.0429852,48.2631387 C86.0429852,49.8088067 84.9925313,50.9192865 83.5369023,50.9192865 Z M86.0579917,45.5919844 C85.4127129,44.6915953 84.4072784,44.1513618 83.2217661,44.1513618 C80.9857998,44.1513618 79.3951124,45.8771076 79.3951124,48.2631387 C79.3951124,50.6491698 80.9857998,52.3749156 83.2217661,52.3749156 C84.4072784,52.3749156 85.4127129,51.8346821 86.0579917,50.934293 L86.0579917,52.0747859 L87.6936986,52.0747859 L87.6936986,44.4514915 L86.0579917,44.4514915 L86.0579917,45.5919844 Z M92.802573,50.8292476 C91.346944,50.8292476 90.2814835,49.7487807 90.2814835,48.2631387 C90.2814835,46.7174708 91.346944,45.6069909 92.802573,45.6069909 C94.2582021,45.6069909 95.308656,46.7174708 95.308656,48.2631387 C95.308656,49.7487807 94.2582021,50.8292476 92.802573,50.8292476 Z M92.832586,54.4458105 C91.7221061,54.4458105 90.7316781,53.6804798 90.4765679,52.6300258 L88.9759194,52.8101037 C89.2460361,54.5658624 90.8967494,55.8264071 92.8926119,55.8264071 C95.2186171,55.8264071 96.8843369,54.4007911 96.8843369,51.9397275 L96.8843369,44.4514915 L95.2636365,44.4514915 L95.2636365,45.486939 C94.6183577,44.6765888 93.6879556,44.1813748 92.5024433,44.1813748 C90.2814835,44.1813748 88.6607832,45.8921141 88.6607832,48.2631387 C88.6607832,50.5741374 90.2814835,52.2248507 92.5024433,52.2248507 C93.6429362,52.2248507 94.6033512,51.7596497 95.2486301,50.9492995 L95.2486301,51.924721 C95.2486301,53.5304149 94.2431956,54.4458105 92.832586,54.4458105 Z M99.5471543,47.5578339 C99.7572451,46.3423086 100.657634,45.516952 101.888166,45.516952 C103.148711,45.516952 104.109126,46.3573151 104.289204,47.5578339 L99.5471543,47.5578339 Z M97.8514215,48.1730998 C97.8514215,50.6191568 99.5621608,52.3749156 101.948192,52.3749156 C103.688944,52.3749156 105.264625,51.2944487 105.699813,49.7938002 L104.169152,49.5687029 C103.884028,50.4090661 102.93862,51.0093255 101.918179,51.0093255 C100.672641,51.0093255 99.7272321,50.1089364 99.5321478,48.7583527 L105.954923,48.7733592 C105.96993,48.5932814 105.984936,48.3681841 105.984936,48.1881063 C105.984936,45.8320882 104.30421,44.1513618 101.933185,44.1513618 C99.5621608,44.1513618 97.8514215,45.8320882 97.8514215,48.1730998 Z M107.5973,52.2848767 C108.197559,52.2848767 108.602734,51.8646951 108.602734,51.2794422 C108.602734,50.7091958 108.197559,50.3040207 107.5973,50.3040207 C107.012047,50.3040207 106.591865,50.7091958 106.591865,51.2794422 C106.591865,51.8646951 107.012047,52.2848767 107.5973,52.2848767 Z M118.340276,42.9358366 C119.735879,42.9358366 120.741313,43.6561478 120.741313,44.9016861 C120.741313,45.9971595 119.720872,46.7925032 118.340276,46.7925032 L115.459031,46.7925032 L115.459031,42.9358366 L118.340276,42.9358366 Z M115.459031,48.2331257 L118.310263,48.2331257 L120.651274,52.0747859 L122.722169,52.0747859 L120.066021,47.963009 C121.506644,47.5878469 122.542091,46.3273022 122.542091,44.9016861 C122.542091,42.8758106 120.876372,41.4501945 118.550366,41.4501945 L113.658252,41.4501945 L113.658252,52.0747859 L115.459031,52.0747859 L115.459031,48.2331257 Z M125.144883,47.5578339 C125.354974,46.3423086 126.255363,45.516952 127.485894,45.516952 C128.746439,45.516952 129.706854,46.3573151 129.886932,47.5578339 L125.144883,47.5578339 Z M123.44915,48.1730998 C123.44915,50.6191568 125.159889,52.3749156 127.54592,52.3749156 C129.286673,52.3749156 130.862354,51.2944487 131.297542,49.7938002 L129.76688,49.5687029 C129.481757,50.4090661 128.536348,51.0093255 127.515907,51.0093255 C126.270369,51.0093255 125.324961,50.1089364 125.129876,48.7583527 L131.552652,48.7733592 C131.567658,48.5932814 131.582665,48.3681841 131.582665,48.1881063 C131.582665,45.8320882 129.901939,44.1513618 127.530914,44.1513618 C125.159889,44.1513618 123.44915,45.8320882 123.44915,48.1730998 Z M133.210035,49.9288585 C133.210035,51.3844876 134.095417,52.3749156 135.461008,52.3749156 C135.881189,52.3749156 136.421423,52.2998832 136.811591,52.1648248 L136.811591,50.8592606 C136.526468,50.9492995 136.166312,50.994319 135.956222,50.994319 C135.265923,50.994319 134.845742,50.5141115 134.845742,49.8238131 L134.845742,45.7270428 L136.706546,45.7270428 L136.706546,44.4514915 L134.845742,44.4514915 L134.845742,42.6056939 L133.510165,42.6056939 L133.300074,44.4514915 L132.039529,44.4514915 L132.039529,45.7270428 L133.210035,45.7270428 L133.210035,49.9288585 Z M141.56031,50.9192865 C140.104681,50.9192865 139.039221,49.7938002 139.039221,48.2631387 C139.039221,46.7174708 140.104681,45.6069909 141.56031,45.6069909 C143.015939,45.6069909 144.066393,46.7174708 144.066393,48.2631387 C144.066393,49.8088067 143.015939,50.9192865 141.56031,50.9192865 Z M144.081399,45.5919844 C143.436121,44.6915953 142.430686,44.1513618 141.245174,44.1513618 C139.009208,44.1513618 137.41852,45.8771076 137.41852,48.2631387 C137.41852,50.6491698 139.009208,52.3749156 141.245174,52.3749156 C142.430686,52.3749156 143.436121,51.8346821 144.081399,50.934293 L144.081399,52.0747859 L145.717106,52.0747859 L145.717106,44.4514915 L144.081399,44.4514915 L144.081399,45.5919844 Z M147.254437,44.4514915 L147.254437,52.0747859 L148.875138,52.0747859 L148.875138,44.4514915 L147.254437,44.4514915 Z M148.064788,43.2209598 C148.65004,43.2209598 149.070222,42.8007782 149.070222,42.2155253 C149.070222,41.6452789 148.65004,41.2401038 148.064788,41.2401038 C147.464528,41.2401038 147.044347,41.6452789 147.044347,42.2155253 C147.044347,42.8007782 147.464528,43.2209598 148.064788,43.2209598 Z M150.397462,44.4514915 L152.003156,44.4514915 L152.003156,45.4269131 C152.54339,44.6315694 153.488798,44.1513618 154.479226,44.1513618 C156.34003,44.1513618 157.555556,45.5319585 157.555556,47.4227756 L157.555556,52.0747859 L155.934855,52.0747859 L155.934855,47.5428274 C155.934855,46.4173411 155.259563,45.6069909 154.119071,45.6069909 C152.978578,45.6069909 152.033169,46.477367 152.033169,47.6928923 L152.033169,52.0747859 L150.397462,52.0747859 L150.397462,44.4514915 Z" id="Reach.Engage.Retain" fill="#FFFFFF"></path>
                    </g>
                </g>
            </g>
        </g>
    </g>
</svg>