<?xml version="1.0" encoding="UTF-8"?>
<svg width="215px" height="67px" viewBox="0 0 215 67" version="1.1" xmlns="http://www.w3.org/2000/svg" xmlns:xlink="http://www.w3.org/1999/xlink">
    <title>Group 29</title>
    <g id="Home" stroke="none" stroke-width="1" fill="none" fill-rule="evenodd">
        <g id="Care-Character" transform="translate(-70.000000, -50.000000)">
            <g id="Group-29" transform="translate(70.000000, 50.000000)">
                <polygon id="Fill-1218" fill="#B3B2B2" points="63.63264 62.37864 62.33904 62.37864 62.33904 61.49544 65.92544 61.49544 65.92544 62.37864 64.63184 62.37864 64.63184 66.03064 63.63264 66.03064"></polygon>
                <polygon id="Fill-1219" fill="#B3B2B2" points="66.68856 61.49504 67.68776 61.49504 67.68776 63.18544 69.62856 63.18544 69.62856 61.49504 70.62776 61.49504 70.62776 66.03104 69.62856 66.03104 69.62856 64.07024 67.68776 64.07024 67.68776 66.03104 66.68856 66.03104"></polygon>
                <polygon id="Fill-1220" fill="#B3B2B2" points="71.8452 61.49504 74.9268 61.49504 74.9268 62.41744 72.8444 62.41744 72.8444 63.26304 74.8116 63.26304 74.8116 64.18544 72.8444 64.18544 72.8444 65.10864 75.042 65.10864 75.042 66.03104 71.8452 66.03104"></polygon>
                <path d="M79.25064,63.37232 L79.83944,63.37232 C79.92984,63.37232 80.02424,63.36832 80.12504,63.36192 C80.22584,63.35552 80.31624,63.33632 80.39704,63.30432 C80.47864,63.27232 80.54584,63.22272 80.59864,63.15392 C80.65224,63.08672 80.67944,62.98912 80.67944,62.86592 C80.67944,62.75072 80.65544,62.65872 80.60904,62.58992 C80.56104,62.52192 80.50104,62.46912 80.42904,62.43312 C80.35704,62.39712 80.27304,62.37232 80.17944,62.35952 C80.08504,62.34672 79.99384,62.34032 79.90424,62.34032 L79.25064,62.34032 L79.25064,63.37232 Z M78.25064,61.49472 L80.00664,61.49472 C80.23704,61.49472 80.45544,61.51792 80.66264,61.56192 C80.86984,61.60672 81.05144,61.68192 81.20744,61.78672 C81.36424,61.89072 81.48744,62.03152 81.57944,62.20912 C81.67064,62.38672 81.71704,62.60752 81.71704,62.87232 C81.71704,63.19232 81.63304,63.46432 81.46744,63.68912 C81.30024,63.91312 81.05704,64.05552 80.73624,64.11552 L81.88984,66.03072 L80.69144,66.03072 L79.74344,64.21792 L79.25064,64.21792 L79.25064,66.03072 L78.25064,66.03072 L78.25064,61.49472 Z" id="Fill-1221" fill="#B3B2B2"></path>
                <polygon id="Fill-1222" fill="#B3B2B2" points="82.6456 66.0312 83.6456 66.0312 83.6456 61.4952 82.6456 61.4952"></polygon>
                <path d="M88.91704,65.71064 C88.62264,65.86344 88.31464,65.97544 87.99464,66.04344 C87.67384,66.11144 87.34744,66.14584 87.01464,66.14584 C86.65944,66.14584 86.33304,66.09064 86.03384,65.97944 C85.73544,65.86824 85.47704,65.70904 85.25944,65.50184 C85.04104,65.29464 84.87144,65.04424 84.74984,64.74984 C84.62824,64.45464 84.56744,64.12584 84.56744,63.76264 C84.56744,63.39944 84.62824,63.07064 84.74984,62.77544 C84.87144,62.48184 85.04104,62.22984 85.25944,62.02344 C85.47704,61.81624 85.73544,61.65784 86.03384,61.54584 C86.33304,61.43464 86.65944,61.37944 87.01464,61.37944 C87.37704,61.37944 87.71144,61.42344 88.01704,61.51064 C88.32184,61.59784 88.59064,61.74904 88.82104,61.96264 L88.11624,62.73064 C87.98024,62.59064 87.82504,62.48424 87.65544,62.41064 C87.48424,62.33784 87.27064,62.30184 87.01464,62.30184 C86.80104,62.30184 86.60744,62.33784 86.43384,62.41064 C86.26184,62.48424 86.11304,62.58504 85.98904,62.71544 C85.86584,62.84504 85.77064,63.00024 85.70424,63.18024 C85.63864,63.35944 85.60504,63.55384 85.60504,63.76264 C85.60504,63.97624 85.63864,64.17144 85.70424,64.34904 C85.77064,64.52664 85.86584,64.68024 85.98904,64.80984 C86.11304,64.94024 86.26184,65.04184 86.43384,65.11464 C86.60744,65.18744 86.80104,65.22424 87.01464,65.22424 C87.23304,65.22424 87.42024,65.19864 87.57784,65.14984 C87.73544,65.10024 87.86184,65.05064 87.95624,64.99944 L87.95624,64.26184 L87.14264,64.26184 L87.14264,63.34024 L88.91704,63.34024 L88.91704,65.71064 Z" id="Fill-1223" fill="#B3B2B2"></path>
                <polygon id="Fill-1224" fill="#B3B2B2" points="90.05104 61.49504 91.05024 61.49504 91.05024 63.18544 92.99104 63.18544 92.99104 61.49504 93.99104 61.49504 93.99104 66.03104 92.99104 66.03104 92.99104 64.07024 91.05024 64.07024 91.05024 66.03104 90.05104 66.03104"></polygon>
                <polygon id="Fill-1225" fill="#B3B2B2" points="96.04672 62.37864 94.75312 62.37864 94.75312 61.49544 98.34032 61.49544 98.34032 62.37864 97.04672 62.37864 97.04672 66.03064 96.04672 66.03064"></polygon>
                <path d="M102.25416,63.41688 L102.92056,63.41688 C103.01016,63.41688 103.09656,63.40808 103.17976,63.39128 C103.26376,63.37368 103.33736,63.34568 103.40376,63.30408 C103.47016,63.26408 103.52296,63.20808 103.56456,63.13768 C103.60456,63.06728 103.62456,62.97848 103.62456,62.87208 C103.62456,62.75688 103.59816,62.66408 103.54456,62.59368 C103.49096,62.52328 103.42296,62.46808 103.33976,62.43048 C103.25656,62.39208 103.16376,62.36728 103.06136,62.35608 C102.95816,62.34568 102.86056,62.34008 102.76696,62.34008 L102.25416,62.34008 L102.25416,63.41688 Z M101.25416,61.49528 L102.93976,61.49528 C103.17416,61.49528 103.39656,61.51608 103.60536,61.55928 C103.81496,61.60168 103.99736,61.67528 104.15336,61.78008 C104.30936,61.88488 104.43336,62.02568 104.52536,62.20248 C104.61656,62.38008 104.66296,62.60248 104.66296,62.87208 C104.66296,63.13688 104.62056,63.35928 104.53496,63.53848 C104.44936,63.71768 104.33176,63.86168 104.18216,63.96728 C104.03256,64.07448 103.85576,64.15048 103.65096,64.19528 C103.44536,64.23928 103.22376,64.26248 102.98456,64.26248 L102.25416,64.26248 L102.25416,66.03128 L101.25416,66.03128 L101.25416,61.49528 Z" id="Fill-1226" fill="#B3B2B2"></path>
                <polygon id="Fill-1227" fill="#B3B2B2" points="105.58504 61.49504 108.66664 61.49504 108.66664 62.41744 106.58424 62.41744 106.58424 63.26304 108.55144 63.26304 108.55144 64.18544 106.58424 64.18544 106.58424 65.10864 108.78264 65.10864 108.78264 66.03104 105.58504 66.03104"></polygon>
                <path d="M110.63304,63.76296 C110.63304,63.97656 110.66584,64.17176 110.73224,64.34856 C110.79864,64.52616 110.89384,64.67976 111.01784,64.81016 C111.14104,64.94056 111.28904,65.04216 111.46264,65.11416 C111.63544,65.18696 111.82904,65.22376 112.04184,65.22376 C112.25544,65.22376 112.44984,65.18696 112.62184,65.11416 C112.79544,65.04216 112.94264,64.94056 113.06664,64.81016 C113.19144,64.67976 113.28584,64.52616 113.35224,64.34856 C113.41864,64.17176 113.45144,63.97656 113.45144,63.76296 C113.45144,63.55336 113.41864,63.35896 113.35224,63.17976 C113.28584,63.00056 113.19144,62.84536 113.06664,62.71496 C112.94264,62.58456 112.79544,62.48376 112.62184,62.41096 C112.44984,62.33816 112.25544,62.30216 112.04184,62.30216 C111.82904,62.30216 111.63544,62.33816 111.46264,62.41096 C111.28904,62.48376 111.14104,62.58456 111.01784,62.71496 C110.89384,62.84536 110.79864,63.00056 110.73224,63.17976 C110.66584,63.35896 110.63304,63.55336 110.63304,63.76296 M109.59544,63.76296 C109.59544,63.39976 109.65624,63.07096 109.77784,62.77576 C109.89944,62.48136 110.06904,62.23016 110.28664,62.02296 C110.50504,61.81576 110.76344,61.65736 111.06184,61.54616 C111.36104,61.43496 111.68744,61.37976 112.04184,61.37976 C112.39624,61.37976 112.72344,61.43496 113.02264,61.54616 C113.32184,61.65736 113.58024,61.81576 113.79784,62.02296 C114.01544,62.23016 114.18504,62.48136 114.30664,62.77576 C114.42904,63.07096 114.48984,63.39976 114.48984,63.76296 C114.48984,64.12536 114.42904,64.45416 114.30664,64.74936 C114.18504,65.04456 114.01544,65.29496 113.79784,65.50216 C113.58024,65.70936 113.32184,65.86856 113.02264,65.97976 C112.72344,66.09016 112.39624,66.14616 112.04184,66.14616 C111.68744,66.14616 111.36104,66.09016 111.06184,65.97976 C110.76344,65.86856 110.50504,65.70936 110.28664,65.50216 C110.06904,65.29496 109.89944,65.04456 109.77784,64.74936 C109.65624,64.45416 109.59544,64.12536 109.59544,63.76296" id="Fill-1228" fill="#B3B2B2"></path>
                <path d="M116.42368,63.41688 L117.09008,63.41688 C117.17968,63.41688 117.26608,63.40808 117.35008,63.39128 C117.43328,63.37368 117.50768,63.34568 117.57408,63.30408 C117.64048,63.26408 117.69328,63.20808 117.73408,63.13768 C117.77488,63.06728 117.79488,62.97848 117.79488,62.87208 C117.79488,62.75688 117.76848,62.66408 117.71488,62.59368 C117.66128,62.52328 117.59248,62.46808 117.51008,62.43048 C117.42688,62.39208 117.33328,62.36728 117.23168,62.35608 C117.12848,62.34568 117.03008,62.34008 116.93648,62.34008 L116.42368,62.34008 L116.42368,63.41688 Z M115.42448,61.49528 L117.10928,61.49528 C117.34448,61.49528 117.56608,61.51608 117.77568,61.55928 C117.98528,61.60168 118.16768,61.67528 118.32368,61.78008 C118.47968,61.88488 118.60288,62.02568 118.69488,62.20248 C118.78688,62.38008 118.83248,62.60248 118.83248,62.87208 C118.83248,63.13688 118.79008,63.35928 118.70448,63.53848 C118.61888,63.71768 118.50128,63.86168 118.35248,63.96728 C118.20288,64.07448 118.02528,64.15048 117.82048,64.19528 C117.61568,64.23928 117.39328,64.26248 117.15488,64.26248 L116.42368,64.26248 L116.42368,66.03128 L115.42448,66.03128 L115.42448,61.49528 Z" id="Fill-1229" fill="#B3B2B2"></path>
                <polygon id="Fill-1230" fill="#B3B2B2" points="119.75496 61.49504 120.75496 61.49504 120.75496 65.10864 122.60616 65.10864 122.60616 66.03104 119.75496 66.03104"></polygon>
                <polygon id="Fill-1231" fill="#B3B2B2" points="123.45104 61.49504 126.53344 61.49504 126.53344 62.41744 124.45104 62.41744 124.45104 63.26304 126.41744 63.26304 126.41744 64.18544 124.45104 64.18544 124.45104 65.10864 126.64784 65.10864 126.64784 66.03104 123.45104 66.03104"></polygon>
                <polygon id="Fill-1232" fill="#B3B2B2" points="129.89552 61.49504 132.93792 61.49504 132.93792 62.41744 130.89472 62.41744 130.89472 63.34064 132.78432 63.34064 132.78432 64.26224 130.89472 64.26224 130.89472 66.03104 129.89552 66.03104"></polygon>
                <path d="M134.70688,63.76296 C134.70688,63.97656 134.74048,64.17176 134.80608,64.34856 C134.87248,64.52616 134.96768,64.67976 135.09088,64.81016 C135.21488,64.94056 135.36288,65.04216 135.53568,65.11416 C135.70928,65.18696 135.90208,65.22376 136.11568,65.22376 C136.32928,65.22376 136.52288,65.18696 136.69568,65.11416 C136.86848,65.04216 137.01728,64.94056 137.14048,64.81016 C137.26448,64.67976 137.35968,64.52616 137.42608,64.34856 C137.49168,64.17176 137.52528,63.97656 137.52528,63.76296 C137.52528,63.55336 137.49168,63.35896 137.42608,63.17976 C137.35968,63.00056 137.26448,62.84536 137.14048,62.71496 C137.01728,62.58456 136.86848,62.48376 136.69568,62.41096 C136.52288,62.33816 136.32928,62.30216 136.11568,62.30216 C135.90208,62.30216 135.70928,62.33816 135.53568,62.41096 C135.36288,62.48376 135.21488,62.58456 135.09088,62.71496 C134.96768,62.84536 134.87248,63.00056 134.80608,63.17976 C134.74048,63.35896 134.70688,63.55336 134.70688,63.76296 M133.66928,63.76296 C133.66928,63.39976 133.73008,63.07096 133.85088,62.77576 C133.97328,62.48136 134.14288,62.23016 134.36048,62.02296 C134.57888,61.81576 134.83728,61.65736 135.13568,61.54616 C135.43408,61.43496 135.76128,61.37976 136.11568,61.37976 C136.47088,61.37976 136.79728,61.43496 137.09568,61.54616 C137.39488,61.65736 137.65328,61.81576 137.87088,62.02296 C138.08928,62.23016 138.25888,62.48136 138.38048,62.77576 C138.50208,63.07096 138.56288,63.39976 138.56288,63.76296 C138.56288,64.12536 138.50208,64.45416 138.38048,64.74936 C138.25888,65.04456 138.08928,65.29496 137.87088,65.50216 C137.65328,65.70936 137.39488,65.86856 137.09568,65.97976 C136.79728,66.09016 136.47088,66.14616 136.11568,66.14616 C135.76128,66.14616 135.43408,66.09016 135.13568,65.97976 C134.83728,65.86856 134.57888,65.70936 134.36048,65.50216 C134.14288,65.29496 133.97328,65.04456 133.85088,64.74936 C133.73008,64.45416 133.66928,64.12536 133.66928,63.76296" id="Fill-1233" fill="#B3B2B2"></path>
                <path d="M140.49712,63.37232 L141.08672,63.37232 C141.17632,63.37232 141.27152,63.36832 141.37152,63.36192 C141.47232,63.35552 141.56352,63.33632 141.64432,63.30432 C141.72512,63.27232 141.79232,63.22272 141.84672,63.15392 C141.89872,63.08672 141.92592,62.98912 141.92592,62.86592 C141.92592,62.75072 141.90272,62.65872 141.85552,62.58992 C141.80912,62.52192 141.74912,62.46912 141.67632,62.43312 C141.60352,62.39712 141.52032,62.37232 141.42672,62.35952 C141.33232,62.34672 141.24032,62.34032 141.15072,62.34032 L140.49712,62.34032 L140.49712,63.37232 Z M139.49792,61.49472 L141.25312,61.49472 C141.48432,61.49472 141.70272,61.51792 141.91072,61.56192 C142.11632,61.60672 142.29872,61.68192 142.45472,61.78672 C142.60992,61.89072 142.73392,62.03152 142.82592,62.20912 C142.91792,62.38672 142.96352,62.60752 142.96352,62.87232 C142.96352,63.19232 142.88032,63.46432 142.71392,63.68912 C142.54752,63.91312 142.30352,64.05552 141.98352,64.11552 L143.13632,66.03072 L141.93872,66.03072 L140.99072,64.21792 L140.49712,64.21792 L140.49712,66.03072 L139.49792,66.03072 L139.49792,61.49472 Z" id="Fill-1234" fill="#B3B2B2"></path>
                <polygon id="Fill-1235" fill="#B3B2B2" points="146.93544 62.37864 145.64104 62.37864 145.64104 61.49544 149.22824 61.49544 149.22824 62.37864 147.93464 62.37864 147.93464 66.03064 146.93544 66.03064"></polygon>
                <polygon id="Fill-1236" fill="#B3B2B2" points="149.99128 61.49504 150.99048 61.49504 150.99048 63.18544 152.93128 63.18544 152.93128 61.49504 153.93048 61.49504 153.93048 66.03104 152.93128 66.03104 152.93128 64.07024 150.99048 64.07024 150.99048 66.03104 149.99128 66.03104"></polygon>
                <polygon id="Fill-1237" fill="#B3B2B2" points="155.14792 61.49504 158.22952 61.49504 158.22952 62.41744 156.14712 62.41744 156.14712 63.26304 158.11432 63.26304 158.11432 64.18544 156.14712 64.18544 156.14712 65.10864 158.34472 65.10864 158.34472 66.03104 155.14792 66.03104"></polygon>
                <path d="M164.51976,62.67392 C164.42136,62.55392 164.30136,62.46192 164.15736,62.39792 C164.01496,62.33392 163.84936,62.30192 163.66136,62.30192 C163.47256,62.30192 163.29896,62.33792 163.13896,62.41072 C162.97896,62.48432 162.84056,62.58512 162.72216,62.71552 C162.60536,62.84512 162.51336,63.00032 162.44776,63.18032 C162.38136,63.35872 162.34856,63.55392 162.34856,63.76272 C162.34856,63.97632 162.38136,64.17152 162.44776,64.34912 C162.51336,64.52592 162.60376,64.68032 162.71976,64.80992 C162.83496,64.94032 162.97016,65.04192 163.12616,65.11472 C163.28216,65.18752 163.45016,65.22432 163.62856,65.22432 C163.83416,65.22432 164.01576,65.18112 164.17336,65.09552 C164.33176,65.00992 164.46216,64.89072 164.56456,64.73632 L165.39736,65.35712 C165.20536,65.62672 164.96136,65.82512 164.66696,65.95392 C164.37176,66.08192 164.06936,66.14592 163.75736,66.14592 C163.40296,66.14592 163.07576,66.09072 162.77736,65.97952 C162.47816,65.86832 162.21976,65.70912 162.00216,65.50192 C161.78376,65.29472 161.61496,65.04432 161.49256,64.74992 C161.37096,64.45472 161.31016,64.12512 161.31016,63.76272 C161.31016,63.39952 161.37096,63.07072 161.49256,62.77552 C161.61496,62.48192 161.78376,62.22992 162.00216,62.02352 C162.21976,61.81632 162.47816,61.65712 162.77736,61.54592 C163.07576,61.43472 163.40296,61.37952 163.75736,61.37952 C163.88536,61.37952 164.01896,61.39072 164.15736,61.41472 C164.29656,61.43872 164.43336,61.47632 164.56776,61.52672 C164.70216,61.57792 164.83096,61.64672 164.95496,61.73152 C165.07976,61.81792 165.18936,61.92192 165.28776,62.04592 L164.51976,62.67392 Z" id="Fill-1238" fill="#B3B2B2"></path>
                <path d="M168.07488,62.81456 L167.52448,64.22416 L168.63168,64.22416 L168.07488,62.81456 Z M167.69008,61.49536 L168.51728,61.49536 L170.49008,66.03136 L169.36288,66.03136 L168.97248,65.06976 L167.21008,65.06976 L166.83248,66.03136 L165.73088,66.03136 L167.69008,61.49536 Z" id="Fill-1239" fill="#B3B2B2"></path>
                <path d="M172.19984,63.37232 L172.78944,63.37232 C172.87904,63.37232 172.97424,63.36832 173.07424,63.36192 C173.17504,63.35552 173.26624,63.33632 173.34704,63.30432 C173.42864,63.27232 173.49504,63.22272 173.54944,63.15392 C173.60224,63.08672 173.62864,62.98912 173.62864,62.86592 C173.62864,62.75072 173.60544,62.65872 173.55824,62.58992 C173.51184,62.52192 173.45184,62.46912 173.37904,62.43312 C173.30624,62.39712 173.22304,62.37232 173.12944,62.35952 C173.03504,62.34672 172.94304,62.34032 172.85344,62.34032 L172.19984,62.34032 L172.19984,63.37232 Z M171.20064,61.49472 L172.95584,61.49472 C173.18704,61.49472 173.40544,61.51792 173.61344,61.56192 C173.81904,61.60672 174.00144,61.68192 174.15744,61.78672 C174.31344,61.89072 174.43664,62.03152 174.52864,62.20912 C174.62064,62.38672 174.66624,62.60752 174.66624,62.87232 C174.66624,63.19232 174.58304,63.46432 174.41664,63.68912 C174.25024,63.91312 174.00624,64.05552 173.68624,64.11552 L174.83984,66.03072 L173.64144,66.03072 L172.69344,64.21792 L172.19984,64.21792 L172.19984,66.03072 L171.20064,66.03072 L171.20064,61.49472 Z" id="Fill-1240" fill="#B3B2B2"></path>
                <polygon id="Fill-1241" fill="#B3B2B2" points="175.64672 61.49504 178.72832 61.49504 178.72832 62.41744 176.64592 62.41744 176.64592 63.26304 178.61312 63.26304 178.61312 64.18544 176.64592 64.18544 176.64592 65.10864 178.84352 65.10864 178.84352 66.03104 175.64672 66.03104"></polygon>
                <path d="M184.2952,62.6028 C184.2136,62.5004 184.104,62.4244 183.9648,62.3756 C183.8264,62.326 183.6952,62.302 183.5712,62.302 C183.4976,62.302 183.424,62.3108 183.3464,62.3276 C183.2696,62.3452 183.1968,62.3716 183.1296,62.4076 C183.0608,62.4444 183.0056,62.4916 182.9624,62.5524 C182.92,62.6124 182.8984,62.6844 182.8984,62.77 C182.8984,62.9068 182.9496,63.0108 183.052,63.0844 C183.1552,63.1556 183.284,63.218 183.44,63.2692 C183.5952,63.3204 183.7632,63.3724 183.9424,63.4228 C184.1216,63.474 184.2896,63.5476 184.4448,63.6412 C184.6008,63.7348 184.7296,63.8612 184.8328,64.0196 C184.9352,64.1772 184.9872,64.3876 184.9872,64.6532 C184.9872,64.9052 184.94,65.1252 184.8456,65.3132 C184.752,65.5012 184.6248,65.6564 184.4648,65.7812 C184.3048,65.9052 184.1184,65.9964 183.908,66.0556 C183.6952,66.1164 183.4728,66.146 183.2376,66.146 C182.9432,66.146 182.6704,66.1012 182.4176,66.0116 C182.1656,65.9212 181.9312,65.7772 181.7128,65.5756 L182.424,64.794 C182.5264,64.9308 182.656,65.0364 182.812,65.1116 C182.968,65.186 183.1296,65.2236 183.2952,65.2236 C183.3768,65.2236 183.4592,65.214 183.5424,65.194 C183.6248,65.1756 183.7,65.1468 183.7664,65.1084 C183.8328,65.07 183.8856,65.0204 183.9264,64.9604 C183.9672,64.9012 183.9872,64.8308 183.9872,64.75 C183.9872,64.6124 183.9352,64.5044 183.8304,64.4252 C183.7256,64.3468 183.5944,64.2796 183.436,64.2236 C183.2784,64.1684 183.1072,64.1132 182.924,64.0572 C182.74,64.002 182.5696,63.9268 182.412,63.8332 C182.2536,63.7388 182.1224,63.6156 182.0176,63.4612 C181.9128,63.3084 181.8608,63.1052 181.8608,62.8524 C181.8608,62.61 181.9088,62.3956 182.0048,62.2124 C182.1008,62.0292 182.2288,61.8748 182.3896,61.7516 C182.5488,61.6268 182.7344,61.534 182.9432,61.4724 C183.1528,61.4108 183.368,61.3796 183.5904,61.3796 C183.8464,61.3796 184.0944,61.4164 184.3328,61.4884 C184.572,61.5604 184.788,61.6836 184.98,61.8532 L184.2952,62.6028 Z" id="Fill-1242" fill="#B3B2B2"></path>
                <polygon id="Fill-1243" fill="#B3B2B2" points="186.02408 61.49504 189.10568 61.49504 189.10568 62.41744 187.02408 62.41744 187.02408 63.26304 188.99048 63.26304 188.99048 64.18544 187.02408 64.18544 187.02408 65.10864 189.22088 65.10864 189.22088 66.03104 186.02408 66.03104"></polygon>
                <path d="M193.244,62.67392 C193.1456,62.55392 193.0248,62.46192 192.8816,62.39792 C192.7384,62.33392 192.5728,62.30192 192.3848,62.30192 C192.1976,62.30192 192.0232,62.33792 191.8624,62.41072 C191.7032,62.48432 191.564,62.58512 191.4464,62.71552 C191.3296,62.84512 191.2368,63.00032 191.172,63.18032 C191.1048,63.35872 191.0728,63.55392 191.0728,63.76272 C191.0728,63.97632 191.1048,64.17152 191.172,64.34912 C191.2368,64.52592 191.3288,64.68032 191.4432,64.80992 C191.5592,64.94032 191.6944,65.04192 191.8504,65.11472 C192.0064,65.18752 192.1744,65.22432 192.3528,65.22432 C192.5584,65.22432 192.7392,65.18112 192.8976,65.09552 C193.0552,65.00992 193.1856,64.89072 193.288,64.73632 L194.1216,65.35712 C193.9296,65.62672 193.6856,65.82512 193.3912,65.95392 C193.096,66.08192 192.7936,66.14592 192.4808,66.14592 C192.1272,66.14592 191.8,66.09072 191.5008,65.97952 C191.2024,65.86832 190.944,65.70912 190.7256,65.50192 C190.5088,65.29472 190.3384,65.04432 190.2168,64.74992 C190.0952,64.45472 190.0344,64.12512 190.0344,63.76272 C190.0344,63.39952 190.0952,63.07072 190.2168,62.77552 C190.3384,62.48192 190.5088,62.22992 190.7256,62.02352 C190.944,61.81632 191.2024,61.65712 191.5008,61.54592 C191.8,61.43472 192.1272,61.37952 192.4808,61.37952 C192.6096,61.37952 192.7432,61.39072 192.8816,61.41472 C193.0208,61.43872 193.1568,61.47632 193.292,61.52672 C193.4264,61.57792 193.5552,61.64672 193.6784,61.73152 C193.8024,61.81792 193.9136,61.92192 194.012,62.04592 L193.244,62.67392 Z" id="Fill-1244" fill="#B3B2B2"></path>
                <polygon id="Fill-1245" fill="#B3B2B2" points="195.79984 62.37864 194.50544 62.37864 194.50544 61.49544 198.09264 61.49544 198.09264 62.37864 196.79904 62.37864 196.79904 66.03064 195.79984 66.03064"></polygon>
                <path d="M199.65024,63.76296 C199.65024,63.97656 199.68224,64.17176 199.75024,64.34856 C199.81504,64.52616 199.90944,64.67976 200.03424,64.81016 C200.15824,64.94056 200.30624,65.04216 200.47984,65.11416 C200.65264,65.18696 200.84624,65.22376 201.05904,65.22376 C201.27344,65.22376 201.46624,65.18696 201.63824,65.11416 C201.81184,65.04216 201.95984,64.94056 202.08464,64.81016 C202.20864,64.67976 202.30304,64.52616 202.36944,64.34856 C202.43584,64.17176 202.46864,63.97656 202.46864,63.76296 C202.46864,63.55336 202.43584,63.35896 202.36944,63.17976 C202.30304,63.00056 202.20864,62.84536 202.08464,62.71496 C201.95984,62.58456 201.81184,62.48376 201.63824,62.41096 C201.46624,62.33816 201.27344,62.30216 201.05904,62.30216 C200.84624,62.30216 200.65264,62.33816 200.47984,62.41096 C200.30624,62.48376 200.15824,62.58456 200.03424,62.71496 C199.90944,62.84536 199.81504,63.00056 199.75024,63.17976 C199.68224,63.35896 199.65024,63.55336 199.65024,63.76296 M198.61264,63.76296 C198.61264,63.39976 198.67344,63.07096 198.79504,62.77576 C198.91664,62.48136 199.08624,62.23016 199.30384,62.02296 C199.52224,61.81576 199.78064,61.65736 200.07904,61.54616 C200.37824,61.43496 200.70464,61.37976 201.05904,61.37976 C201.41344,61.37976 201.73984,61.43496 202.03904,61.54616 C202.33824,61.65736 202.59664,61.81576 202.81424,62.02296 C203.03184,62.23016 203.20144,62.48136 203.32304,62.77576 C203.44624,63.07096 203.50624,63.39976 203.50624,63.76296 C203.50624,64.12536 203.44624,64.45416 203.32304,64.74936 C203.20144,65.04456 203.03184,65.29496 202.81424,65.50216 C202.59664,65.70936 202.33824,65.86856 202.03904,65.97976 C201.73984,66.09016 201.41344,66.14616 201.05904,66.14616 C200.70464,66.14616 200.37824,66.09016 200.07904,65.97976 C199.78064,65.86856 199.52224,65.70936 199.30384,65.50216 C199.08624,65.29496 198.91664,65.04456 198.79504,64.74936 C198.67344,64.45416 198.61264,64.12536 198.61264,63.76296" id="Fill-1246" fill="#B3B2B2"></path>
                <path d="M205.44088,63.37232 L206.03048,63.37232 C206.12008,63.37232 206.21448,63.36832 206.31528,63.36192 C206.41528,63.35552 206.50648,63.33632 206.58808,63.30432 C206.66808,63.27232 206.73608,63.22272 206.78968,63.15392 C206.84248,63.08672 206.86968,62.98912 206.86968,62.86592 C206.86968,62.75072 206.84568,62.65872 206.79848,62.58992 C206.75208,62.52192 206.69208,62.46912 206.62008,62.43312 C206.54648,62.39712 206.46408,62.37232 206.37048,62.35952 C206.27608,62.34672 206.18408,62.34032 206.09448,62.34032 L205.44088,62.34032 L205.44088,63.37232 Z M204.44168,61.49472 L206.19688,61.49472 C206.42728,61.49472 206.64648,61.51792 206.85368,61.56192 C207.06008,61.60672 207.24248,61.68192 207.39768,61.78672 C207.55368,61.89072 207.67688,62.03152 207.77048,62.20912 C207.86168,62.38672 207.90728,62.60752 207.90728,62.87232 C207.90728,63.19232 207.82408,63.46432 207.65768,63.68912 C207.49128,63.91312 207.24808,64.05552 206.92648,64.11552 L208.08008,66.03072 L206.88248,66.03072 L205.93448,64.21792 L205.44088,64.21792 L205.44088,66.03072 L204.44168,66.03072 L204.44168,61.49472 Z" id="Fill-1247" fill="#B3B2B2"></path>
                <path d="M62.4256,12.0216 C62.4256,10.5896 62.6936,9.1632 63.2312,7.7416 C63.7688,6.3208 64.5512,5.0504 65.5816,3.9312 C66.6104,2.812 67.864,1.9056 69.3416,1.2112 C70.8184,0.5184 72.4968,0.1712 74.3768,0.1712 C76.6152,0.1712 78.5568,0.6528 80.2016,1.6152 C81.8464,2.5776 83.072,3.8304 83.8768,5.3744 L79.6472,8.3288 C79.3792,7.7032 79.0376,7.1824 78.624,6.7688 C78.2096,6.3544 77.756,6.0184 77.264,5.7608 C76.7712,5.5048 76.268,5.3248 75.7536,5.224 C75.2384,5.1224 74.7352,5.072 74.2424,5.072 C73.1912,5.072 72.2728,5.2856 71.4904,5.7104 C70.7064,6.1368 70.0576,6.684 69.5424,7.3552 C69.0272,8.0264 68.6472,8.788 68.4016,9.6384 C68.1552,10.4888 68.032,11.3504 68.032,12.2232 C68.032,13.1632 68.1776,14.0704 68.4688,14.9424 C68.7592,15.8152 69.1784,16.5872 69.7272,17.2584 C70.276,17.9304 70.936,18.4624 71.708,18.8536 C72.48,19.2448 73.3472,19.4408 74.3096,19.4408 C74.8016,19.4408 75.3112,19.3792 75.8368,19.2568 C76.3632,19.1344 76.8664,18.9432 77.348,18.6856 C77.8288,18.4288 78.2712,18.0928 78.6744,17.6784 C79.0768,17.2648 79.4008,16.7552 79.6472,16.1504 L84.1456,18.804 C83.788,19.6752 83.2568,20.46 82.5512,21.1528 C81.8464,21.8472 81.0352,22.4288 80.1176,22.8992 C79.1992,23.3688 78.2256,23.7272 77.1968,23.9728 C76.1672,24.2184 75.16,24.3424 74.176,24.3424 C72.452,24.3424 70.8688,23.9904 69.4256,23.2848 C67.9816,22.5792 66.7392,21.6456 65.6992,20.4816 C64.6584,19.3184 63.8528,17.9976 63.2816,16.5208 C62.7112,15.0432 62.4256,13.544 62.4256,12.0216" id="Fill-1248" fill="#91BEDC"></path>
                <path d="M92.19904,20.61608 C92.78064,20.61608 93.34624,20.51528 93.89504,20.31368 C94.44304,20.11208 94.89584,19.84328 95.25424,19.50808 C95.76864,19.10488 96.02624,18.68008 96.02624,18.23288 L96.02624,16.55368 C95.55664,16.37528 95.04704,16.23448 94.49904,16.13368 C93.95024,16.03368 93.44144,15.98248 92.97104,15.98248 C91.98624,15.98248 91.17504,16.20728 90.53744,16.65448 C89.89904,17.10168 89.58064,17.68408 89.58064,18.39928 C89.58064,19.04968 89.82704,19.58088 90.31904,19.99528 C90.81104,20.40968 91.43824,20.61608 92.19904,20.61608 M90.62144,24.47688 C89.74864,24.47688 88.93744,24.33608 88.18704,24.05688 C87.43744,23.77688 86.79424,23.38568 86.25744,22.88168 C85.71984,22.37848 85.29504,21.78568 84.98144,21.10248 C84.66784,20.42088 84.51184,19.67528 84.51184,18.86968 C84.51184,17.99768 84.69664,17.20328 85.06544,16.48648 C85.43504,15.77048 85.95504,15.15528 86.62704,14.64008 C87.29824,14.12568 88.09184,13.72248 89.01024,13.43208 C89.92704,13.14088 90.94544,12.99528 92.06464,12.99528 C92.80304,12.99528 93.51904,13.05688 94.21344,13.18008 C94.90704,13.30328 95.51104,13.48808 96.02624,13.73368 L96.02624,12.92888 C96.02624,10.89208 94.85104,9.87288 92.50144,9.87288 C91.53904,9.87288 90.62144,10.03608 89.74864,10.36088 C88.87584,10.68488 87.95744,11.17128 86.99584,11.82088 L85.41744,8.46328 C86.58144,7.70248 87.79024,7.13288 89.04384,6.75128 C90.29664,6.37048 91.62864,6.18008 93.03824,6.18008 C95.70144,6.18008 97.76064,6.80728 99.21584,8.06088 C100.67024,9.31368 101.39824,11.14888 101.39824,13.56568 L101.39824,18.09848 C101.39824,18.63528 101.48224,19.01048 101.64944,19.22248 C101.81744,19.43528 102.11424,19.56408 102.53904,19.60888 L102.53904,24.14088 C102.06944,24.25288 101.64384,24.32568 101.26384,24.35928 C100.88224,24.39288 100.53584,24.40888 100.22304,24.40888 C99.21584,24.40888 98.45424,24.21288 97.93984,23.82248 C97.42464,23.43048 97.10064,22.87688 96.96624,22.16008 L96.86544,21.35448 C96.08224,22.36248 95.14784,23.13368 94.06304,23.67048 C92.97664,24.20808 91.83024,24.47688 90.62144,24.47688" id="Fill-1249" fill="#91BEDC"></path>
                <path d="M115.39672,11.11536 C114.09832,11.13776 112.92312,11.35056 111.87192,11.75296 C110.81912,12.15616 110.05912,12.76096 109.58872,13.56576 L109.58872,24.14096 L104.21752,24.14096 L104.21752,6.51616 L109.15272,6.51616 L109.15272,10.07456 C109.75672,8.88896 110.53432,7.96016 111.48552,7.28896 C112.43672,6.61696 113.44952,6.26976 114.52392,6.24736 L115.06152,6.24736 C115.17272,6.24736 115.28472,6.25936 115.39672,6.28096 L115.39672,11.11536 Z" id="Fill-1250" fill="#91BEDC"></path>
                <path d="M128.53928,13.66688 C128.42648,12.54848 128.02408,11.66448 127.33048,11.01488 C126.63688,10.36608 125.77528,10.04128 124.74568,10.04128 C123.69368,10.04128 122.82648,10.37168 122.14408,11.03168 C121.46088,11.69168 121.06408,12.57008 120.95288,13.66688 L128.53928,13.66688 Z M124.81288,24.47728 C123.33608,24.47728 122.00968,24.23568 120.83448,23.75408 C119.65928,23.27408 118.66408,22.61888 117.84728,21.79088 C117.02968,20.96288 116.40888,20.00688 115.98408,18.92048 C115.55848,17.83568 115.34568,16.69968 115.34568,15.51328 C115.34568,14.23808 115.55848,13.03488 115.98408,11.90448 C116.40888,10.77488 117.02488,9.78368 117.83048,8.93328 C118.63608,8.08368 119.62648,7.41168 120.80088,6.91888 C121.97608,6.42688 123.31288,6.18048 124.81288,6.18048 C126.31208,6.18048 127.64408,6.42688 128.80808,6.91888 C129.97128,7.41168 130.95608,8.07808 131.76248,8.91728 C132.56808,9.75568 133.17688,10.72368 133.59128,11.82048 C134.00568,12.91728 134.21288,14.07008 134.21288,15.27808 C134.21288,15.59168 134.20168,15.89968 134.17928,16.20128 C134.15688,16.50368 134.12328,16.76688 134.07848,16.99008 L121.05288,16.99008 C121.14248,18.17728 121.57288,19.07728 122.34568,19.69248 C123.11768,20.30848 123.99528,20.61648 124.98088,20.61648 C125.76408,20.61648 126.51928,20.42608 127.24728,20.04528 C127.97368,19.66448 128.46088,19.15008 128.70728,18.50128 L133.27288,19.77728 C132.57848,21.16448 131.50488,22.29408 130.05048,23.16768 C128.59448,24.04048 126.84888,24.47728 124.81288,24.47728 L124.81288,24.47728 Z" id="Fill-1251" fill="#91BEDC"></path>
                <path d="M62.4256,41.13096 C62.4256,39.69896 62.6936,38.27256 63.2312,36.85096 C63.7688,35.43016 64.5512,34.15976 65.5816,33.04056 C66.6104,31.92136 67.864,31.01576 69.3416,30.32136 C70.8184,29.62776 72.4968,29.28056 74.3768,29.28056 C76.6152,29.28056 78.5568,29.76216 80.2016,30.72456 C81.8464,31.68696 83.072,32.94056 83.8768,34.48376 L79.6472,37.43896 C79.3792,36.81256 79.0376,36.29176 78.624,35.87816 C78.2096,35.46376 77.756,35.12776 77.264,34.87096 C76.7712,34.61416 76.268,34.43416 75.7536,34.33336 C75.2384,34.23256 74.7352,34.18136 74.2424,34.18136 C73.1912,34.18136 72.2728,34.39496 71.4904,34.81976 C70.7064,35.24616 70.0576,35.79336 69.5424,36.46536 C69.0272,37.13656 68.6472,37.89736 68.4016,38.74776 C68.1552,39.59896 68.032,40.45976 68.032,41.33256 C68.032,42.27256 68.1776,43.17976 68.4688,44.05176 C68.7592,44.92536 69.1784,45.69656 69.7272,46.36856 C70.276,47.04056 70.936,47.57176 71.708,47.96296 C72.48,48.35496 73.3472,48.55016 74.3096,48.55016 C74.8016,48.55016 75.3112,48.48936 75.8368,48.36616 C76.3632,48.24376 76.8664,48.05256 77.348,47.79496 C77.8288,47.53896 78.2712,47.20296 78.6744,46.78776 C79.0768,46.37496 79.4008,45.86456 79.6472,45.26056 L84.1456,47.91336 C83.788,48.78536 83.2568,49.56936 82.5512,50.26296 C81.8464,50.95656 81.0352,51.53816 80.1176,52.00856 C79.1992,52.47816 78.2256,52.83656 77.1968,53.08216 C76.1672,53.32856 75.16,53.45176 74.176,53.45176 C72.452,53.45176 70.8688,53.09976 69.4256,52.39496 C67.9816,51.68856 66.7392,50.75496 65.6992,49.59096 C64.6584,48.42776 63.8528,47.10696 63.2816,45.63016 C62.7112,44.15256 62.4256,42.65336 62.4256,41.13096" id="Fill-1252" fill="#FFFFFF"></path>
                <path d="M102.03224,53.25048 L96.66024,53.25048 L96.66024,43.34728 C96.66024,42.20568 96.43704,41.36728 95.98904,40.82888 C95.54104,40.29208 94.92664,40.02328 94.14264,40.02328 C93.82904,40.02328 93.48824,40.09688 93.11944,40.24168 C92.74904,40.38808 92.39144,40.60008 92.04424,40.88008 C91.69784,41.16008 91.37864,41.48968 91.08824,41.86968 C90.79704,42.25048 90.57304,42.67528 90.41624,43.14568 L90.41624,53.25048 L85.04504,53.25048 L85.04504,28.74408 L90.41624,28.74408 L90.41624,38.58008 C91.06584,37.52888 91.92104,36.71688 92.98504,36.14568 C94.04744,35.57528 95.21704,35.28968 96.49304,35.28968 C97.67864,35.28968 98.63544,35.49768 99.36344,35.91128 C100.09064,36.32568 100.64984,36.85128 101.04184,37.48968 C101.43304,38.12728 101.69624,38.84328 101.83064,39.63688 C101.96504,40.43288 102.03224,41.21048 102.03224,41.97048 L102.03224,53.25048 Z" id="Fill-1253" fill="#FFFFFF"></path>
                <path d="M111.09632,49.72544 C111.67872,49.72544 112.24272,49.62544 112.79152,49.42304 C113.34032,49.22144 113.79312,48.95344 114.15072,48.61744 C114.66592,48.21424 114.92352,47.78944 114.92352,47.34224 L114.92352,45.66304 C114.45312,45.48464 113.94432,45.34384 113.39632,45.24384 C112.84672,45.14304 112.33872,45.09264 111.86832,45.09264 C110.88272,45.09264 110.07312,45.31664 109.43472,45.76464 C108.79712,46.21184 108.47792,46.79344 108.47792,47.50944 C108.47792,48.15904 108.72432,48.69104 109.21632,49.10464 C109.70832,49.51904 110.33472,49.72544 111.09632,49.72544 M109.51872,53.58624 C108.64592,53.58624 107.83392,53.44544 107.08512,53.16704 C106.33472,52.88704 105.69152,52.49504 105.15472,51.99104 C104.61712,51.48784 104.19232,50.89504 103.87872,50.21184 C103.56512,49.53024 103.40832,48.78544 103.40832,47.97984 C103.40832,47.10704 103.59312,46.31264 103.96272,45.59664 C104.33152,44.87984 104.85232,44.26464 105.52352,43.74944 C106.19472,43.23504 106.98912,42.83264 107.90672,42.54144 C108.82432,42.25024 109.84272,42.10464 110.96272,42.10464 C111.70112,42.10464 112.41712,42.16704 113.11072,42.28944 C113.80432,42.41264 114.40832,42.59744 114.92352,42.84304 L114.92352,42.03824 C114.92352,40.00144 113.74832,38.98224 111.39872,38.98224 C110.43632,38.98224 109.51872,39.14544 108.64592,39.47024 C107.77232,39.79424 106.85472,40.28064 105.89312,40.93024 L104.31552,37.57264 C105.47872,36.81184 106.68672,36.24224 107.94032,35.86064 C109.19392,35.47984 110.52592,35.28944 111.93552,35.28944 C114.59872,35.28944 116.65872,35.91664 118.11232,37.17024 C119.56752,38.42304 120.29472,40.25904 120.29472,42.67504 L120.29472,47.20864 C120.29472,47.74464 120.37952,48.11984 120.54672,48.33264 C120.71392,48.54544 121.01072,48.67424 121.43632,48.71824 L121.43632,53.25024 C120.96672,53.36224 120.54112,53.43504 120.16112,53.46864 C119.77952,53.50304 119.43232,53.51904 119.12032,53.51904 C118.11232,53.51904 117.35232,53.32304 116.83712,52.93184 C116.32272,52.54064 115.99712,51.98624 115.86352,51.27024 L115.76272,50.46464 C114.97872,51.47184 114.04512,52.24304 112.95952,52.77984 C111.87392,53.31744 110.72752,53.58624 109.51872,53.58624" id="Fill-1254" fill="#FFFFFF"></path>
                <path d="M134.2936,40.22544 C132.9952,40.24784 131.8208,40.45984 130.7688,40.86304 C129.7168,41.26544 128.956,41.87024 128.4856,42.67584 L128.4856,53.25024 L123.1144,53.25024 L123.1144,35.62544 L128.0496,35.62544 L128.0496,39.18384 C128.6536,37.99824 129.4312,37.06944 130.3824,36.39824 C131.3336,35.72624 132.3464,35.37984 133.4208,35.35744 L133.9584,35.35744 C134.0696,35.35744 134.1816,35.36944 134.2936,35.39104 L134.2936,40.22544 Z" id="Fill-1255" fill="#FFFFFF"></path>
                <path d="M141.7936,49.72544 C142.376,49.72544 142.94,49.62544 143.4888,49.42304 C144.0368,49.22144 144.4904,48.95344 144.848,48.61744 C145.3632,48.21424 145.6208,47.78944 145.6208,47.34224 L145.6208,45.66304 C145.1504,45.48464 144.6416,45.34384 144.0936,45.24384 C143.544,45.14304 143.036,45.09264 142.5656,45.09264 C141.58,45.09264 140.7696,45.31664 140.132,45.76464 C139.4936,46.21184 139.1752,46.79344 139.1752,47.50944 C139.1752,48.15904 139.4208,48.69104 139.9136,49.10464 C140.4056,49.51904 141.032,49.72544 141.7936,49.72544 M140.216,53.58624 C139.3432,53.58624 138.5312,53.44544 137.7816,53.16704 C137.032,52.88704 136.3888,52.49504 135.852,51.99104 C135.3144,51.48784 134.8888,50.89504 134.576,50.21184 C134.2624,49.53024 134.1064,48.78544 134.1064,47.97984 C134.1064,47.10704 134.2904,46.31264 134.66,45.59664 C135.0288,44.87984 135.5496,44.26464 136.2208,43.74944 C136.892,43.23504 137.6864,42.83264 138.604,42.54144 C139.5216,42.25024 140.54,42.10464 141.66,42.10464 C142.3976,42.10464 143.1136,42.16704 143.808,42.28944 C144.5016,42.41264 145.1056,42.59744 145.6208,42.84304 L145.6208,42.03824 C145.6208,40.00144 144.4456,38.98224 142.096,38.98224 C141.1328,38.98224 140.216,39.14544 139.3432,39.47024 C138.4704,39.79424 137.552,40.28064 136.5896,40.93024 L135.012,37.57264 C136.176,36.81184 137.384,36.24224 138.6384,35.86064 C139.8912,35.47984 141.2232,35.28944 142.6328,35.28944 C145.296,35.28944 147.3552,35.91664 148.8096,37.17024 C150.264,38.42304 150.992,40.25904 150.992,42.67504 L150.992,47.20864 C150.992,47.74464 151.076,48.11984 151.244,48.33264 C151.4112,48.54544 151.708,48.67424 152.1336,48.71824 L152.1336,53.25024 C151.6632,53.36224 151.2376,53.43504 150.8576,53.46864 C150.4768,53.50304 150.1304,53.51904 149.8168,53.51904 C148.8096,53.51904 148.0488,53.32304 147.5336,52.93184 C147.0192,52.54064 146.6944,51.98624 146.56,51.27024 L146.46,50.46464 C145.676,51.47184 144.7416,52.24304 143.6568,52.77984 C142.5712,53.31744 141.424,53.58624 140.216,53.58624" id="Fill-1256" fill="#FFFFFF"></path>
                <path d="M153.15072,40.9464 C153.57552,39.8384 154.19152,38.8656 154.99632,38.0264 C155.80192,37.1872 156.79312,36.5216 157.96752,36.0288 C159.14272,35.5376 160.47952,35.2896 161.97952,35.2896 C164.01552,35.2896 165.72752,35.7216 167.11552,36.5824 C168.50352,37.444 169.54352,38.5688 170.23792,39.9568 L165.00032,41.5352 C164.30672,40.4152 163.28832,39.8552 161.94592,39.8552 C160.82672,39.8552 159.89232,40.2704 159.14272,41.0984 C158.39312,41.9264 158.01792,43.0344 158.01792,44.4216 C158.01792,45.1152 158.11872,45.7472 158.32032,46.3176 C158.52192,46.8888 158.80112,47.3752 159.16032,47.7784 C159.51712,48.1816 159.93712,48.4952 160.41792,48.7184 C160.89952,48.9416 161.40912,49.0544 161.94592,49.0544 C162.61712,49.0544 163.23232,48.892 163.79232,48.5672 C164.35152,48.2432 164.76592,47.8232 165.03392,47.308 L170.27152,48.92 C169.62192,50.2856 168.58752,51.4048 167.16592,52.2768 C165.74512,53.1496 164.01552,53.5864 161.97952,53.5864 C160.50192,53.5864 159.17632,53.3352 158.00112,52.8312 C156.82592,52.3272 155.83072,51.656 155.01312,50.8168 C154.19632,49.9776 153.57552,49.004 153.15072,47.896 C152.72512,46.788 152.51232,45.6304 152.51232,44.4216 C152.51232,43.2128 152.72512,42.0544 153.15072,40.9464 Z" id="Fill-1257" fill="#FFFFFF"></path>
                <path d="M183.18616,52.31064 C182.44776,52.62424 181.60216,52.91464 180.65176,53.18344 C179.70056,53.45224 178.74296,53.58664 177.78136,53.58664 C177.10936,53.58664 176.47656,53.50264 175.88456,53.33464 C175.29096,53.16664 174.77096,52.89784 174.32296,52.52824 C173.87496,52.15944 173.52296,51.67224 173.26616,51.06824 C173.00856,50.46424 172.87976,49.73704 172.87976,48.88664 L172.87976,39.68824 L170.63096,39.68824 L170.63096,35.62584 L172.87976,35.62584 L172.87976,30.02024 L178.25096,30.02024 L178.25096,35.62584 L181.84296,35.62584 L181.84296,39.68824 L178.25096,39.68824 L178.25096,47.04024 C178.25096,47.62264 178.39656,48.04184 178.68696,48.29864 C178.97816,48.55704 179.34776,48.68504 179.79496,48.68504 C180.19896,48.68504 180.61256,48.61784 181.03736,48.48424 C181.46216,48.34984 181.83176,48.20344 182.14536,48.04744 L183.18616,52.31064 Z" id="Fill-1258" fill="#FFFFFF"></path>
                <path d="M195.93576,42.77624 C195.82376,41.65784 195.42056,40.77384 194.72776,40.12424 C194.03336,39.47544 193.17176,39.15064 192.14216,39.15064 C191.09016,39.15064 190.22296,39.48104 189.54056,40.14104 C188.85816,40.80104 188.46056,41.68024 188.34936,42.77624 L195.93576,42.77624 Z M192.21016,53.58664 C190.73256,53.58664 189.40616,53.34584 188.23176,52.86424 C187.05576,52.38424 186.06056,51.72824 185.24376,50.90024 C184.42616,50.07224 183.80536,49.11624 183.38056,48.02984 C182.95496,46.94504 182.74216,45.80904 182.74216,44.62344 C182.74216,43.34744 182.95496,42.14424 183.38056,41.01384 C183.80536,39.88424 184.42136,38.89304 185.22696,38.04264 C186.03256,37.19304 187.02296,36.52184 188.19816,36.02824 C189.37256,35.53704 190.71016,35.28984 192.21016,35.28984 C193.70856,35.28984 195.04056,35.53704 196.20456,36.02824 C197.36776,36.52184 198.35256,37.18744 199.15896,38.02664 C199.96456,38.86504 200.57336,39.83304 200.98776,40.92984 C201.40216,42.02664 201.60936,43.17944 201.60936,44.38744 C201.60936,44.70104 201.59816,45.00904 201.57576,45.31064 C201.55336,45.61304 201.51976,45.87624 201.47496,46.09944 L188.45016,46.09944 C188.53896,47.28664 188.97016,48.18744 189.74216,48.80264 C190.51416,49.41784 191.39176,49.72584 192.37736,49.72584 C193.16056,49.72584 193.91576,49.53544 194.64376,49.15544 C195.37016,48.77384 195.85736,48.25944 196.10376,47.61064 L200.66936,48.88664 C199.97576,50.27384 198.90136,51.40424 197.44696,52.27704 C195.99176,53.14984 194.24536,53.58664 192.21016,53.58664 L192.21016,53.58664 Z" id="Fill-1259" fill="#FFFFFF"></path>
                <path d="M214.14792,40.22544 C212.84952,40.24784 211.67512,40.45984 210.62312,40.86304 C209.57112,41.26544 208.81032,41.87024 208.33992,42.67584 L208.33992,53.25024 L202.96872,53.25024 L202.96872,35.62544 L207.90392,35.62544 L207.90392,39.18384 C208.50792,37.99824 209.28552,37.06944 210.23672,36.39824 C211.18792,35.72624 212.20072,35.37984 213.27512,35.35744 L213.81272,35.35744 C213.92392,35.35744 214.03592,35.36944 214.14792,35.39104 L214.14792,40.22544 Z" id="Fill-1260" fill="#FFFFFF"></path>
                <path d="M25.00256,50.86216 L25.06416,50.91096 C26.63856,52.15096 28.93616,51.85976 30.19536,50.26056 L30.19936,50.25576 C31.45856,48.65656 31.20416,46.35496 29.62976,45.11496 L29.56816,45.06696 C27.99376,43.82616 25.69616,44.11736 24.43616,45.71656 L24.43376,45.72056 C23.17296,47.31976 23.42816,49.62216 25.00256,50.86216" id="Fill-1261" fill="#75C1D1"></path>
                <path d="M41.5616,33.5528 L41.6184,33.5976 C43.08,34.7488 45.2264,34.4608 46.4128,32.9544 L46.416,32.9504 C47.6024,31.444 47.38,29.2896 45.9192,28.1384 L45.8616,28.0936 C44.4008,26.9424 42.2544,27.2312 41.068,28.7368 L41.0648,28.7408 C39.8784,30.2472 40.1,32.4016 41.5616,33.5528" id="Fill-1262" fill="#75C1D1"></path>
                <path d="M49.11432,15.29032 L49.15512,15.32312 C50.19672,16.14312 51.72952,15.93592 52.57752,14.85912 L52.57992,14.85592 C53.42792,13.77912 53.27112,12.24072 52.22952,11.42072 L52.18872,11.38792 C51.14712,10.56792 49.61432,10.77512 48.76632,11.85192 L48.76472,11.85512 C47.91592,12.93192 48.07272,14.47032 49.11432,15.29032" id="Fill-1263" fill="#75C1D1"></path>
                <path d="M18.65256,45.06608 L18.68696,45.09328 C19.57416,45.79168 20.87896,45.61568 21.60216,44.69808 L21.60376,44.69568 C22.32616,43.77888 22.19256,42.46848 21.30536,41.77008 L21.27016,41.74288 C20.38376,41.04368 19.07896,41.21968 18.35576,42.13728 L18.35416,42.13968 C17.63176,43.05648 17.76536,44.36688 18.65256,45.06608" id="Fill-1264" fill="#75C1D1"></path>
                <path d="M33.5784,45.06608 L33.6128,45.09328 C34.5008,45.79168 35.8056,45.61568 36.528,44.69808 L36.5296,44.69568 C37.252,43.77888 37.1184,42.46848 36.2312,41.77008 L36.1968,41.74288 C35.3096,41.04368 34.0048,41.21968 33.2824,42.13728 L33.28,42.13968 C32.5584,43.05648 32.6912,44.36688 33.5784,45.06608" id="Fill-1265" fill="#75C1D1"></path>
                <path d="M44.42328,9.40984 L44.47208,9.44824 C45.70968,10.42344 47.52328,10.18584 48.52328,8.91624 L48.52568,8.91304 C49.52488,7.64424 49.33208,5.82504 48.09448,4.84984 L48.04568,4.81144 C46.80728,3.83624 44.99368,4.07464 43.99448,5.34344 L43.99128,5.34664 C42.99208,6.61544 43.18568,8.43464 44.42328,9.40984" id="Fill-1266" fill="#75C1D1"></path>
                <path d="M26.0268,40.0544 L26.0604,40.0808 C26.93,40.7664 28.2044,40.5992 28.9068,39.7072 L28.9084,39.7048 C29.6108,38.8136 29.4756,37.536 28.606,36.8504 L28.5716,36.824 C27.702,36.1384 26.4276,36.3056 25.7252,37.1976 L25.7236,37.2 C25.0212,38.0912 25.1572,39.3696 26.0268,40.0544" id="Fill-1267" fill="#75C1D1"></path>
                <path d="M37.03264,25.81768 L37.07264,25.84888 C38.09904,26.65768 39.60304,26.46008 40.43184,25.40808 L40.43344,25.40488 C41.26304,24.35368 41.10224,22.84488 40.07584,22.03608 L40.03584,22.00488 C39.00944,21.19688 37.50624,21.39448 36.67744,22.44568 L36.67504,22.44888 C35.84624,23.50088 36.00624,25.00888 37.03264,25.81768" id="Fill-1268" fill="#75C1D1"></path>
                <path d="M14.444,25.63408 L14.48,25.66288 C15.4072,26.39248 16.7648,26.21488 17.5136,25.26448 L17.5152,25.26208 C18.264,24.31248 18.1192,22.95008 17.1928,22.21968 L17.156,22.19088 C16.2288,21.46128 14.8712,21.63968 14.1232,22.58928 L14.1208,22.59168 C13.3728,23.54208 13.5168,24.90368 14.444,25.63408" id="Fill-1269" fill="#75C1D1"></path>
                <path d="M47.57992,24.5528 L47.63512,24.596 C49.04072,25.7024 51.10152,25.4304 52.23992,23.9856 L52.24232,23.9824 C53.37992,22.5376 53.16312,20.4696 51.75752,19.3632 L51.70232,19.3192 C50.29672,18.212 48.23592,18.4856 47.09752,19.9296 L47.09512,19.9336 C45.95752,21.3768 46.17432,23.4456 47.57992,24.5528" id="Fill-1270" fill="#75C1D1"></path>
                <path d="M11.53152,32.838 L11.46512,32.89 C9.77472,34.2212 7.29152,33.8884 5.91792,32.146 L5.91472,32.1412 C4.54112,30.398 4.79872,27.9052 6.48912,26.574 L6.55552,26.5212 C8.24672,25.1892 10.72992,25.5228 12.10272,27.266 L12.10672,27.2708 C13.47952,29.014 13.22192,31.506 11.53152,32.838" id="Fill-1271" fill="#75C1D1"></path>
                <path d="M4.94632,15.39504 L4.90312,15.42864 C3.80552,16.29344 2.19112,16.07504 1.29672,14.93984 L1.29432,14.93744 C0.40072,13.80224 0.56552,12.18064 1.66312,11.31584 L1.70632,11.28224 C2.80392,10.41744 4.41912,10.63664 5.31272,11.77184 L5.31512,11.77424 C6.20952,12.90944 6.04392,14.53024 4.94632,15.39504" id="Fill-1272" fill="#75C1D1"></path>
                <path d="M9.53736,9.38952 L9.48936,9.42792 C8.26216,10.39432 6.46456,10.15832 5.47336,8.90072 L5.47096,8.89752 C4.48056,7.63912 4.67176,5.83672 5.89896,4.87032 L5.94696,4.83192 C7.17336,3.86552 8.97176,4.10152 9.96216,5.35912 L9.96536,5.36232 C10.95576,6.61992 10.76456,8.42312 9.53736,9.38952" id="Fill-1273" fill="#75C1D1"></path>
                <path d="M35.96976,6.8528 L36.03056,6.9008 C37.58656,8.1272 39.86976,7.824 41.12896,6.2256 L41.13216,6.2216 C42.39136,4.6224 42.15136,2.3328 40.59536,1.1064 L40.53456,1.0584 C38.97776,-0.1672 36.69536,0.1352 35.43616,1.7344 L35.43296,1.7376 C34.17296,3.3368 34.41376,5.6272 35.96976,6.8528" id="Fill-1274" fill="#75C1D1"></path>
                <path d="M18.8272,7.09192 L18.7648,7.14152 C17.168,8.39912 14.8272,8.08872 13.5344,6.44792 L13.5312,6.44392 C12.2392,4.80472 12.4856,2.45512 14.0824,1.19752 L14.1448,1.14792 C15.7408,-0.10888 18.0824,0.20152 19.3744,1.84152 L19.3776,1.84552 C20.6696,3.48552 20.4232,5.83512 18.8272,7.09192" id="Fill-1275" fill="#75C1D1"></path>
                <path d="M6.33544,23.84424 L6.28184,23.88664 C4.91784,24.96104 2.91704,24.69544 1.81304,23.29464 L1.80984,23.29144 C0.70584,21.88904 0.91704,19.88184 2.28104,18.80744 L2.33464,18.76504 C3.69864,17.69064 5.69944,17.95624 6.80344,19.35784 L6.80584,19.36104 C7.91064,20.76184 7.69944,22.76984 6.33544,23.84424" id="Fill-1276" fill="#75C1D1"></path>
                <path d="M38.3428,40.77864 L38.3884,40.81384 C39.5428,41.72344 41.2356,41.49864 42.17,40.31304 L42.1724,40.30984 C43.1068,39.12424 42.9284,37.42504 41.7748,36.51544 L41.7292,36.48024 C40.5748,35.57064 38.8812,35.79544 37.9468,36.98104 L37.9444,36.98424 C37.01,38.16984 37.1884,39.86904 38.3428,40.77864" id="Fill-1277" fill="#FFFFFF"></path>
                <path d="M16.26544,41.23408 L16.21584,41.27328 C14.95344,42.26768 13.10064,42.02208 12.07904,40.72448 L12.07664,40.72128 C11.05424,39.42368 11.24944,37.56608 12.51184,36.57168 L12.56144,36.53248 C13.82384,35.53808 15.67664,35.78368 16.69824,37.08048 L16.70064,37.08448 C17.72304,38.38128 17.52784,40.23968 16.26544,41.23408" id="Fill-1278" fill="#FFFFFF"></path>
                <path d="M24.812,12.83952 L24.8848,12.89712 C26.74,14.35792 29.4464,14.01552 30.9312,12.13072 L30.9352,12.12592 C32.42,10.24112 32.1192,7.52912 30.2648,6.06752 L30.192,6.01072 C28.3368,4.54992 25.6296,4.89232 24.1456,6.77712 L24.1416,6.78192 C22.6568,8.66592 22.9576,11.37872 24.812,12.83952" id="Fill-1279" fill="#FFFFFF"></path>
                <path d="M25.2092,23.82936 L25.2692,23.87656 C26.7844,25.07016 28.9884,24.79976 30.1924,23.27176 L30.1948,23.26776 C31.3988,21.73976 31.146,19.53336 29.63,18.33976 L29.5708,18.29256 C28.0556,17.09896 25.8516,17.37016 24.6476,18.89736 L24.6444,18.90216 C23.4412,20.42936 23.694,22.63576 25.2092,23.82936" id="Fill-1280" fill="#FFFFFF"></path>
                <path d="M25.56544,32.07472 L25.61504,32.11392 C26.88624,33.11552 28.73504,32.88832 29.74544,31.60672 L29.74784,31.60272 C30.75744,30.32192 30.54544,28.47072 29.27424,27.46912 L29.22464,27.42992 C27.95264,26.42832 26.10384,26.65632 25.09504,27.93712 L25.09184,27.94112 C24.08224,29.22272 24.29424,31.07312 25.56544,32.07472" id="Fill-1281" fill="#FFFFFF"></path>
                <path d="M20.98968,19.41216 L20.95528,19.43936 C20.07448,20.13296 18.78408,19.96336 18.07288,19.06176 L18.07128,19.05936 C17.36008,18.15616 17.49768,16.86176 18.37848,16.16816 L18.41288,16.14096 C19.29368,15.44736 20.58328,15.61696 21.29448,16.51936 L21.29608,16.52176 C22.00728,17.42496 21.87048,18.71856 20.98968,19.41216" id="Fill-1282" fill="#FFFFFF"></path>
                <path d="M35.85416,19.49344 L35.81976,19.52064 C34.93896,20.21424 33.64936,20.04464 32.93816,19.14304 L32.93656,19.14064 C32.22536,18.23744 32.36216,16.94304 33.24296,16.24944 L33.27736,16.22224 C34.15816,15.52944 35.44856,15.69824 36.15896,16.60144 L36.16136,16.60384 C36.87176,17.50624 36.73496,18.79984 35.85416,19.49344" id="Fill-1283" fill="#FFFFFF"></path>
                <path d="M21.42328,34.91376 L21.38888,34.94096 C20.50808,35.63456 19.21848,35.46496 18.50728,34.56256 L18.50568,34.56016 C17.79448,33.65776 17.93128,32.36336 18.81208,31.66976 L18.84648,31.64256 C19.72728,30.94896 21.01768,31.11856 21.72808,32.02096 L21.73048,32.02336 C22.44088,32.92656 22.30408,34.22016 21.42328,34.91376" id="Fill-1284" fill="#FFFFFF"></path>
                <path d="M35.4268,34.91376 L35.3924,34.94096 C34.5116,35.63456 33.222,35.46496 32.5108,34.56256 L32.5092,34.56016 C31.798,33.65776 31.9356,32.36336 32.8156,31.66976 L32.85,31.64256 C33.7308,30.94896 35.0212,31.11856 35.7316,32.02096 L35.734,32.02336 C36.4444,32.92656 36.3076,34.22016 35.4268,34.91376" id="Fill-1285" fill="#FFFFFF"></path>
                <path d="M42.28736,15.70672 L42.24496,15.73952 C41.17616,16.58192 39.60736,16.37392 38.74256,15.27552 L38.74016,15.27312 C37.87456,14.17392 38.03936,12.60032 39.10896,11.75792 L39.15056,11.72512 C40.22016,10.88352 41.78816,11.09072 42.65376,12.18992 L42.65616,12.19232 C43.52176,13.29072 43.35616,14.86432 42.28736,15.70672" id="Fill-1286" fill="#FFFFFF"></path>
                <path d="M15.94984,15.94888 L15.90424,15.98488 C14.73864,16.90248 13.02904,16.67608 12.08584,15.47848 L12.08344,15.47608 C11.14024,14.27848 11.32024,12.56328 12.48504,11.64488 L12.53144,11.60888 C13.69704,10.69128 15.40584,10.91768 16.34984,12.11528 L16.35144,12.11848 C17.29544,13.31608 17.11544,15.03128 15.94984,15.94888" id="Fill-1287" fill="#FFFFFF"></path>
            </g>
        </g>
    </g>
</svg>