<?xml version="1.0" encoding="UTF-8"?>
<svg width="600px" height="542px" viewBox="0 0 600 542" version="1.1" xmlns="http://www.w3.org/2000/svg" xmlns:xlink="http://www.w3.org/1999/xlink">
    <!-- Generator: Sketch 59.1 (86144) - https://sketch.com -->
    <title>team_meeting_online-2</title>
    <desc>Created with Sketch.</desc>
    <defs>
        <linearGradient x1="49.5802615%" y1="10.7201618%" x2="50.0442468%" y2="151.964537%" id="linearGradient-1">
            <stop stop-color="#000000" stop-opacity="0" offset="0%"></stop>
            <stop stop-color="#000000" offset="99%"></stop>
        </linearGradient>
        <linearGradient x1="48.804379%" y1="-6.06121176%" x2="53.8386972%" y2="152.911162%" id="linearGradient-2">
            <stop stop-color="#000000" stop-opacity="0" offset="0%"></stop>
            <stop stop-color="#000000" offset="99%"></stop>
        </linearGradient>
        <linearGradient x1="49.6432488%" y1="111.142381%" x2="51.0712416%" y2="-142.494099%" id="linearGradient-3">
            <stop stop-color="#FFFFFF" stop-opacity="0" offset="0%"></stop>
            <stop stop-color="#FFFFFF" stop-opacity="0.39" offset="32%"></stop>
            <stop stop-color="#FFFFFF" stop-opacity="0.68" offset="68%"></stop>
            <stop stop-color="#FFFFFF" offset="100%"></stop>
        </linearGradient>
        <path d="M220.004413,281.182535 L331.770889,281.182535 C336.381455,281.165678 340.809222,282.988371 344.076872,286.248418 C347.344521,289.508466 349.18339,293.937829 349.187592,298.558837 L349.187592,459.671839 C349.187592,468.3864 342.138964,475.450948 333.44404,475.450948 L219.478566,475.450948 C210.371052,475.450948 202.980557,468.065229 202.95421,458.937184 L202.95421,298.271363 C202.95421,293.739156 204.750565,289.392575 207.948099,286.18782 C211.145632,282.983065 215.482418,281.182535 220.004413,281.182535 Z" id="path-4"></path>
        <linearGradient x1="46.6454641%" y1="64.0901018%" x2="59.4632234%" y2="4.2112552%" id="linearGradient-5">
            <stop stop-color="#000000" stop-opacity="0" offset="0%"></stop>
            <stop stop-color="#000000" offset="99%"></stop>
        </linearGradient>
        <linearGradient x1="61.1256507%" y1="64.962943%" x2="34.6563354%" y2="24.8714726%" id="linearGradient-6">
            <stop stop-color="#000000" stop-opacity="0" offset="0%"></stop>
            <stop stop-color="#000000" offset="99%"></stop>
        </linearGradient>
    </defs>
    <g id="Home" stroke="none" stroke-width="1" fill="none" fill-rule="evenodd">
        <g id="Home-2" transform="translate(-880.000000, -212.000000)">
            <g id="team_meeting_online-2" transform="translate(880.000000, 212.000000)">
                <path d="M592.086658,346.233275 C588.3248,365.123441 495.872356,462.79981 412.521695,510.049177 L412.521695,510.049177 C395.991835,519.406436 379.828598,526.78366 364.781165,531.158897 C309.453159,547.206756 231.314904,542.33651 178.55325,536.061079 C155.185098,533.282644 136.790249,530.232752 127.545005,528.572078 C123.368705,527.837549 121.073334,527.390445 121.073334,527.390445 C97.1632186,524.324585 76.2817182,509.091096 61.2183458,490.328674 C46.1549733,471.566252 36.1286651,449.322803 26.2617577,427.350809 C17.1599739,407.03949 7.97848978,386.520586 3.62684886,364.692305 C0.359133148,348.245246 -0.0712489215,331.383018 0.00845146169,314.632567 C0.215672458,275.415113 4.13693131,233.658745 28.1267467,202.680789 C55.224877,167.774701 101.753961,154.106077 133.028391,122.952473 C150.642176,105.387652 162.660994,83.0324266 179.015512,64.3019409 C198.733387,41.7231628 224.34909,24.9886794 251.35158,11.9907124 C264.581844,5.60350497 278.832272,-0.0332055506 293.481203,0.988747632 C298.090641,1.36758278 302.644784,2.25109315 307.062148,3.62347068 C335.276083,11.9587763 355.918483,35.7830599 361.896011,64.6532373 C368.957465,98.8407649 395.991835,143.998321 481.892908,174.177876 C636.527592,228.517043 596.5977,323.590625 592.086658,346.233275 Z" id="Path" fill="#FFCA35" fill-rule="nonzero"></path>
                <rect id="Rectangle" fill="#FFDB75" fill-rule="nonzero" x="443.131462" y="118.848656" width="117.872969" height="131.286416" rx="10.29"></rect>
                <rect id="Rectangle" fill="#FFDB75" fill-rule="nonzero" x="50.5169867" y="125.945219" width="117.872969" height="131.286416" rx="10.29"></rect>
                <path d="M443.131462,229.224487 C447.421333,221.455296 451.934468,213.446316 459.078937,208.186926 C467.132412,202.240138 477.49827,200.577595 487.465442,199.938156 C501.7475,199.016088 516.088418,199.837394 530.17278,202.384012 C532.858398,202.804609 535.500515,203.468072 538.06678,204.366274 C544.334137,206.716215 549.453277,211.368137 554.014254,216.33978 C555.763505,218.124637 557.188294,220.202063 558.224388,222.4784 C559.332879,226.005324 559.530414,229.756538 558.798497,233.380844 C558.320072,237.121565 557.618384,241.022147 555.337895,244.027512 C551.622133,248.983169 544.796614,250.246062 538.624941,250.517824 C526.50486,251.045362 514.38478,249.159015 502.264699,249.782468 C497.751563,250.006272 493.238428,250.581768 488.725293,250.869516 C479.580514,251.221238 470.422533,250.9649 461.311584,250.102188 C457.324715,249.81444 453.130529,249.446763 449.813454,247.192738 C446.508669,244.698152 444.342349,240.977138 443.801256,236.86579 C443.27761,232.799058 443.304432,228.680054 443.880994,224.620522" id="Path" fill="#222222" fill-rule="nonzero"></path>
                <path d="M492.964863,188.218595 C492.634938,191.004258 491.74992,193.694889 490.362457,196.130425 C489.163774,198.171677 487.555014,200.102164 487.444609,202.665597 C487.459503,204.187892 487.787018,205.690766 488.40671,207.080398 C489.911077,211.754158 492.269789,216.105999 495.362231,219.913386 C499.196941,224.522909 505.403838,226.391059 511.134387,224.660484 C512.552133,224.22002 513.851787,223.462568 514.935476,222.445171 C518.421123,219.058908 515.897578,212.349676 514.367679,206.87469 C512.380387,199.769867 515.519046,189.310428 514.367679,184.958921 C513.9938,183.044563 513.092179,181.273807 511.765273,179.847879 C510.228361,178.547527 508.18599,178.017803 506.213474,178.407926 C500.078105,179.183285 494.384357,184.389269 491.703091,191.668153" id="Path" fill="#FFFFFF" fill-rule="nonzero"></path>
                <path d="M506.355835,203.006208 C508.657257,203.367629 511.368521,202.924066 512.661101,200.903394 C513.297108,199.673606 513.61236,198.29142 513.575365,196.894907 L514.032496,188.927216 C512.616061,189.839695 510.966558,190.28093 509.303547,190.19219 C506.608046,190.290759 503.896781,190.323616 501.20128,190.290759 C499.420043,190.290759 495.747225,189.370778 494.218198,190.635752 C491.680329,192.754993 498.348148,199.096289 499.971753,200.29555 C501.872432,201.696872 504.056658,202.624287 506.355835,203.006208 L506.355835,203.006208 Z" id="Path" fill="url(#linearGradient-1)" fill-rule="nonzero"></path>
                <path d="M481.989713,173.412589 C482.559675,176.192982 483.47522,178.890841 484.714941,181.443086 C486.034709,183.783425 487.651207,185.942821 489.524166,187.867484 C491.454291,190.127458 493.793002,192.001957 496.417389,193.392466 C499.722814,194.723214 503.281218,195.304602 506.837377,195.094931 C509.242923,195.174445 511.644427,194.84314 513.938999,194.115211 C518.908532,192.300318 522.082621,187.417776 524.278834,182.583417 C527.255455,176.247156 528.89278,169.362886 529.088059,162.362625 C529.257131,155.34184 527.457683,148.414248 523.894096,142.366687 C522.085873,139.179988 519.477442,136.522342 516.327581,134.657409 C512.580199,132.832015 508.434368,131.9814 504.272457,132.184016 C501.67851,132.106836 499.086988,132.404341 496.577696,133.067371 C492.629106,134.394675 489.078362,136.698174 486.253893,139.764806 C484.523808,141.42646 483.073036,143.35724 481.957652,145.48252 C477.565226,154.107274 479.905716,164.466615 481.989713,173.412589 Z" id="Path" fill="#FFFFFF" fill-rule="nonzero"></path>
                <path d="M483.113547,160.166853 C483.308371,164.769463 482.838164,169.376028 481.717169,173.84702 C479.195225,170.609557 477.331108,166.918868 476.227959,162.979152 C475.405831,160.866203 474.79304,158.679177 474.398222,156.448898 C474.167927,154.514083 474.098142,152.563843 474.189568,150.617747 C474.163383,149.223139 474.308908,147.830566 474.622926,146.470797 C474.960782,145.10171 475.794658,143.90307 476.966273,143.102393 C477.433863,142.887621 477.862313,142.597706 478.234249,142.244404 C478.53813,141.765035 478.71989,141.219794 478.763909,140.655534 C479.27752,136.953468 481.219609,133.187847 484.670428,131.678421 C486.53302,130.734349 488.477587,129.957974 490.480645,129.358672 C498.328302,127.380058 506.52718,127.189917 514.459826,128.802567 C518.697111,129.676445 523.046748,131.20176 525.839504,134.474832 C527.868778,137.138143 529.207901,140.253118 529.739733,143.547277 C530.145115,144.592002 530.044567,145.76301 529.466877,146.725016 C529.107909,147.043286 528.780098,147.394395 528.487807,147.77367 C528.23902,148.346865 528.204874,148.9891 528.391506,149.584981 C529.547129,156.258234 529.177971,163.598811 525.181441,169.112188 C525.139023,163.35442 524.661531,157.60786 523.752962,151.92062 C523.694891,151.135379 523.441232,150.376606 523.014648,149.712091 C521.826924,148.123221 519.387275,148.409218 517.397035,148.711103 C510.018244,149.861469 502.460522,148.79899 495.696999,145.660473 C494.495685,144.983542 493.188163,144.510914 491.828872,144.262268 C490.440022,144.036475 489.051102,144.664298 488.313851,145.851138 C488.042088,146.8149 487.843579,147.797448 487.719989,148.790547 C487.105787,150.07673 486.250707,151.235909 485.200089,152.206616 C483.632738,154.557838 482.898793,157.357866 483.113547,160.166853 L483.113547,160.166853 Z" id="Path" fill="#222222" fill-rule="nonzero"></path>
                <path d="M543.582135,216.045431 C543.323563,214.205218 543.789645,212.335683 544.879397,210.84189 C546.065486,209.903541 547.537078,209.415034 549.040128,209.460704 C552.04912,209.2626 555.068389,209.289439 558.073502,209.541005 C558.577026,209.543777 559.069918,209.688328 559.497327,209.958573 C559.975318,210.458473 560.246984,211.12496 560.2567,211.821569 C560.920891,216.845187 561.143252,221.918855 560.921151,226.982504 C560.955608,232.114566 559.749684,237.17689 557.409051,241.72587 C555.809659,244.426031 553.582545,246.686937 550.92274,248.310597 C548.913566,249.563302 544.594632,251.843866 542.189951,250.719644 C539.373943,249.418759 541.129993,244.905811 541.50968,242.689488 C542.205771,238.567342 542.733114,234.413074 543.091707,230.226686 C543.471393,225.569196 543.629596,220.751103 543.582135,216.045431 Z" id="Path" fill="#222222" fill-rule="nonzero"></path>
                <path d="M547.748065,200.645106 C546.699104,198.549329 545.341653,196.623521 543.721234,194.932264 C542.151993,193.061437 540.736653,191.066223 539.489114,188.966221 C538.918315,188.274609 538.712801,187.350774 538.936411,186.481688 C539.441739,185.35811 541.099846,185.38976 542.09471,185.959462 C543.673859,186.845664 545.253009,188.61807 547.021656,188.016718 C548.790303,187.415366 548.932427,185.215684 548.679763,183.474929 C547.842814,177.651312 544.621349,171.701094 546.705826,166.193977 C549.013154,169.213533 550.86478,172.556741 552.201266,176.116282 C553.003849,175.797548 553.530057,175.019115 553.527752,174.153976 C553.491753,173.308417 553.337601,172.472095 553.069798,171.669444 C552.470329,169.156266 552.612979,166.522633 553.480377,164.089246 C555.205877,165.394452 556.450069,167.236874 557.017672,169.327336 C560.870796,179.930118 560.286511,191.561529 559.670643,202.828963 C559.616683,205.007844 559.346903,207.175967 558.865276,209.301407 C558.577694,210.900863 557.759757,212.356205 556.543927,213.431745 C554.664739,214.840174 549.453546,215.489001 548.490265,212.798743 C547.90598,211.216238 548.64818,208.367729 548.663971,206.642799 C548.771289,204.601831 548.459558,202.560502 547.748065,200.645106 L547.748065,200.645106 Z" id="Path" fill="#FFFFFF" fill-rule="nonzero"></path>
                <path d="M124.864645,145.114016 C121.67722,143.223923 118.24494,141.779157 114.663839,140.820142 C105.376714,138.86685 95.7007455,141.159407 88.2851941,147.070114 C80.9837472,153.015071 75.8656464,161.209274 73.7331076,170.368358 C71.3741713,179.751268 71.7088852,189.722598 68.8239699,198.994186 C66.9113189,205.085126 63.675751,210.667163 61.5080798,216.662683 C59.3404086,222.658204 58.3203281,229.496596 60.9342845,235.317181 C63.5482409,241.137766 69.2861939,244.859124 75.3747997,246.672093 C81.4634054,248.485062 87.8867251,248.389643 94.2144122,248.341933 L109.611253,248.214707 C119.381712,248.214707 130.331639,247.626287 137.089673,240.660669 C142.63636,235.01502 144.007094,226.427271 143.465176,218.539265 C142.923258,210.651259 140.930913,202.874576 140.819342,194.970667 C140.628077,176.157136 143.831767,155.737379 124.864645,145.114016 Z" id="Path" fill="#222222" fill-rule="nonzero"></path>
                <path d="M65.0725527,230.770547 C69.7557006,226.575053 76.4048116,225.510043 82.6543365,225.300268 C92.4485199,225.238674 102.227983,226.075837 111.872065,227.801428 C115.711476,228.276966 119.506565,229.064839 123.220307,230.15736 C135.68739,234.159216 145.117619,244.292949 153.940478,254.039406 C154.530737,254.581139 154.933971,255.299211 155.091286,256.088743 C155.219153,257.992853 152.725737,258.735132 150.839691,258.799678 C127.360018,259.71946 103.816411,257.186027 80.3527212,258.476948 C73.2241071,258.864224 59.302531,260.542422 55.5464226,252.16757 C52.7013703,245.793645 60.6930902,234.707858 65.0725527,230.770547 Z" id="Path" fill="#222222" fill-rule="nonzero"></path>
                <path d="M105.062401,178.737789 C102.958054,179.774686 100.730071,180.536547 98.4328773,181.00476 C94.6173238,181.643344 90.7063815,180.749327 86.8431336,181.00476 C86.6114261,180.999909 86.3838471,181.066796 86.1913099,181.196335 C86.018807,181.394714 85.9278727,181.651535 85.9369397,181.914742 C85.0577935,188.796056 84.8554411,195.747571 85.3328104,202.668703 C85.5581086,205.585066 86.261808,208.443993 87.4154667,211.129934 C90.9701509,218.216629 98.4817804,222.396643 106.350151,221.666561 C114.15039,220.708977 120.857424,215.663755 123.965289,208.415954 C125.531765,204.32717 126.454321,200.018278 126.699769,195.644286 C127.240306,190.072645 127.558269,184.469075 127.621861,178.9134 C125.226857,177.39873 123.647447,174.872861 123.329364,172.048628 C123.054393,169.693129 123.129403,167.309679 123.551937,164.976316 C118.782496,171.473903 112.486832,175.43312 105.062401,178.737789 Z" id="Path" fill="#FFFFFF" fill-rule="nonzero"></path>
                <path d="M109.644055,234.285417 C108.850065,237.001268 106.940757,239.27924 104.365359,240.583362 C101.375418,241.683749 98.0380213,241.441658 95.2490848,239.922078 C93.6011293,239.213138 92.2244933,238.017767 91.3143517,236.505443 C90.7307655,235.260072 90.4324223,233.906277 90.4399666,232.537737 C90.309688,229.965077 90.4890196,227.386426 90.974313,224.854243 C91.686775,221.05973 93.2250451,217.186494 96.3987393,214.856254 C99.9124721,212.274096 107.733361,211.80175 110.356517,215.989884 C112.979672,220.178018 111.101363,230.128772 109.644055,234.285417 Z" id="Path" fill="#FFFFFF" fill-rule="nonzero"></path>
                <rect id="Rectangle" fill="#FFDB75" fill-rule="nonzero" x="277.400295" y="45.2218152" width="117.872969" height="131.286416" rx="10.29"></rect>
                <path d="M292.774253,150.01899 C297.426005,145.855286 304.030541,144.798346 310.23817,144.606175 C319.362267,144.406811 328.483335,145.125671 337.466005,146.752084 C346.134459,148.241409 355.136315,148.081266 363.947655,148.449594 C367.122913,148.577708 370.663325,148.865964 372.886006,151.172015 C373.952831,152.432723 374.766985,153.890269 375.283325,155.463833 L377.521882,161.084832 C379.109511,165.056365 385.01549,174.728968 379.998583,177.467404 C377.331367,178.9247 371.742913,177.97986 368.758171,177.995874 C364.773222,177.995874 360.820026,177.995874 356.787449,177.883774 C340.514253,177.531461 324.225181,176.554592 307.951985,177.467404 C300.87116,177.86776 287.042912,179.517227 283.311985,171.221849 C280.486005,164.928251 288.42415,153.862408 292.774253,150.01899 Z" id="Path" fill="#222222" fill-rule="nonzero"></path>
                <path d="M339.287041,59.2219536 C344.180294,56.1643242 350.346483,55.9318207 355.459477,58.6121526 C357.200063,59.4871762 358.698993,60.7706962 359.826035,62.3511958 C361.334529,64.9497308 362.17853,67.8753844 362.284246,70.8723632 C363.380987,81.0632737 363.581203,91.3296005 362.882626,101.554984 C362.251901,110.894569 360.893416,120.458817 363.367799,129.493501 C357.096307,125.427021 351.939585,119.880089 348.359778,113.349821 C344.79944,106.840701 341.911451,99.9910755 339.739869,92.905438 C337.55659,86.3581004 335.907001,79.6502888 333.028308,73.3918043 C330.650959,68.2405902 334.936655,61.9821057 339.287041,59.2219536 Z" id="Path" fill="#222222" fill-rule="nonzero"></path>
                <path d="M346.242047,152.610984 C345.980042,155.445704 344.557365,158.049541 342.306462,159.814038 C339.601592,161.49067 336.284509,161.883815 333.257842,160.886492 C331.507607,160.495918 329.926759,159.565828 328.741597,158.229366 C327.945123,157.08927 327.395881,155.797465 327.128653,154.435757 C326.503945,151.893604 326.173841,149.288963 326.144756,146.672466 C326.144756,142.750803 326.854452,138.669072 329.483552,135.675803 C332.43524,132.474446 339.935433,130.473597 343.354876,134.075124 C346.774319,137.676651 346.838836,148.19311 346.242047,152.610984 Z" id="Path" fill="#FFFFFF" fill-rule="nonzero"></path>
                <path d="M329.568337,145.516468 C330.813759,147.446017 332.722639,148.855034 334.936024,149.478563 C336.499759,149.81894 338.101625,149.952157 339.700244,149.874773 C340.235111,149.889687 340.769488,149.831026 341.288317,149.70044 C341.707038,149.547014 342.098427,149.32764 342.447611,149.050657 C345.411392,146.841155 346.938117,143.199049 346.433675,139.541629 C346.433675,139.192965 339.938455,138.74921 339.287345,138.685817 C336.865331,138.445788 334.431844,138.339969 331.998089,138.368849 C330.600584,138.368849 328.55197,138.226214 328.043786,139.874445 C327.535603,141.522677 328.663135,144.090114 329.568337,145.516468 Z" id="Path" fill="url(#linearGradient-2)" fill-rule="nonzero"></path>
                <path d="M313.794609,101.665605 C313.690386,108.104222 314.265296,114.535789 315.509675,120.852202 C316.778363,127.207264 319.902553,133.036277 324.482015,137.592507 C328.716202,141.585262 334.323406,143.768969 340.124058,143.684251 C345.943519,143.547661 351.387181,140.760173 354.924447,136.105546 C357.878173,132.108338 359.021551,127.071856 359.688521,122.147297 C360.91343,113.60239 361.036196,104.93391 360.053767,96.3573137 C359.894619,93.94129 359.30282,91.5741592 358.30694,89.3701949 C356.227199,85.9069307 353.007331,83.2873977 349.207559,81.9673665 C343.197487,79.694769 336.66475,79.2118708 330.389466,80.5763383 C316.240167,83.2624617 314.937986,93.4793242 314.032812,94.0229445 C313.748874,96.5598645 313.669213,99.1157522 313.794609,101.665605 L313.794609,101.665605 Z" id="Path" fill="#FFFFFF" fill-rule="nonzero"></path>
                <path d="M307.577338,88.8998661 C307.981269,81.6682676 311.703516,75.04476 317.636647,70.9999504 C323.491356,67.2078677 330.774042,66.6454825 337.707667,66.5330055 C345.006219,66.4044603 352.701432,66.7418914 358.905202,70.6464511 C365.700998,75.2321562 369.720215,83.0093717 369.567435,91.2779519 C369.457835,98.7080577 366.377779,105.775575 361.031302,110.865023 C359.761988,109.049322 359.44466,106.751577 358.55614,104.726991 C357.623698,102.786945 356.439068,100.982003 355.033796,99.3602298 L348.925224,91.6957237 C348.700976,91.3800932 348.427705,91.1033481 348.116037,90.8762482 C347.443594,90.5721297 346.691462,90.4987813 345.974071,90.6673623 C339.308955,91.4679209 332.598042,91.8114905 325.887185,91.6957237 C323.285092,91.6957237 320.381538,91.6957237 318.477567,93.4310836 C316.065872,95.7448967 317.192387,105.803557 312.670458,105.128695 C310.44916,104.807332 309.306778,100.211842 308.751453,98.396141 C307.790309,95.3299823 307.39236,92.1113571 307.577338,88.8998661 L307.577338,88.8998661 Z" id="Path" fill="#222222" fill-rule="nonzero"></path>
                <ellipse id="Oval" stroke="#222222" stroke-width="0.84" cx="327.474151" cy="113.082699" rx="6.64697194" ry="6.65302782"></ellipse>
                <ellipse id="Oval" stroke="#222222" stroke-width="0.84" cx="346.971935" cy="113.082699" rx="6.64697194" ry="6.65302782"></ellipse>
                <polygon id="Path" fill="#FFFFFF" fill-rule="nonzero" points="275.268168 283.843746 272.968981 283.843746 272.968981 233.763334 345.11588 233.763334 345.11588 179.169442 347.415066 179.169442 347.415066 236.084094 275.268168 236.084094"></polygon>
                <polygon id="Path" fill="#FFFFFF" fill-rule="nonzero" points="298.336906 280.295465 296.011817 280.295465 296.011817 269.495444 486.907971 269.495444 486.907971 251.022143 489.217134 251.022143 489.217134 271.824547 298.336906 271.824547"></polygon>
                <polygon id="Path" fill="#FFFFFF" fill-rule="nonzero" points="253.471196 282.956676 251.157338 282.956676 251.157338 274.507955 103.692762 274.507955 103.692762 258.118706 106.00662 258.118706 106.00662 272.205202 253.471196 272.205202"></polygon>
                <path d="M220.004413,281.182535 L331.770889,281.182535 C336.381455,281.165678 340.809222,282.988371 344.076872,286.248418 C347.344521,289.508466 349.18339,293.937829 349.187592,298.558837 L349.187592,459.671839 C349.187592,468.3864 342.138964,475.450948 333.44404,475.450948 L219.478566,475.450948 C210.371052,475.450948 202.980557,468.065229 202.95421,458.937184 L202.95421,298.271363 C202.95421,293.739156 204.750565,289.392575 207.948099,286.18782 C211.145632,282.983065 215.482418,281.182535 220.004413,281.182535 Z" id="Path" fill="#FFFFFF" fill-rule="nonzero"></path>
                <g id="Path" fill-rule="nonzero">
                    <use fill="#303030" xlink:href="#path-4"></use>
                    <use fill-opacity="0.2" fill="url(#linearGradient-3)" xlink:href="#path-4"></use>
                </g>
                <rect id="Rectangle" fill="#FFDB75" fill-rule="nonzero" x="209.15805" y="296.262732" width="132.939439" height="155.237316"></rect>
                <path d="M220.176161,414.784329 L235.189699,406.211611 C240.436328,402.969074 246.009273,400.288655 251.816394,398.214671 C260.584939,395.415742 269.976386,395.44773 279.160199,395.751614 C293.662638,396.23143 308.628261,397.494947 321.437684,404.324333 C334.247107,411.153719 344.389231,424.876467 342.82399,439.318939 C342.325769,442.96462 341.403796,446.539507 340.076832,449.970863 C339.855098,450.842782 339.369788,451.624818 338.687281,452.210006 C337.940569,452.616297 337.089339,452.789006 336.243588,452.705816 C303.245748,452.913736 270.247908,454.721045 237.218124,453.025693 C228.529438,452.577865 219.872695,453.777406 211.168038,454.161259 C210.034036,454.161259 209.954177,429.25879 210.097924,427.307536 C210.688882,420.718058 214.55407,417.999099 220.176161,414.784329 Z" id="Path" fill="#222222" fill-rule="nonzero"></path>
                <path d="M326.374789,395.011042 C328.065238,399.744741 329.144321,404.672528 329.586171,409.676281 C330.292676,415.32535 330.951009,420.990376 331.191863,426.687319 C331.545115,434.2992 331.191863,441.974913 332.5567,449.491047 C333.921538,457.007181 337.08475,464.523315 343.154264,469.182999 C343.875932,469.907033 344.90213,470.245012 345.916053,470.092595 C346.959752,469.773439 347.425403,468.576602 347.714427,467.523386 C351.327233,453.943279 347.393289,439.692944 345.498573,425.777723 C344.909316,419.650291 344.003582,413.557005 342.784955,407.521975 C341.778568,403.362437 340.297068,399.330856 338.369303,395.505734 C336.907756,392.367095 334.871336,389.526127 332.364017,387.127878 C330.870724,385.787421 324.945723,381.606471 323.067064,383.840566 C321.188405,386.074661 325.523772,392.904609 326.374789,395.011042 Z" id="Path" fill="url(#linearGradient-5)" fill-rule="nonzero"></path>
                <path d="M225.580751,420.155235 C225.142897,423.90682 224.951575,427.683408 225.008032,431.460363 L225.008032,449.074587 C225.130181,452.301778 224.836067,455.531289 224.133044,458.682345 C222.374591,464.482033 218.356993,469.317357 212.996841,472.085168 C212.33788,472.494514 211.58986,472.736325 210.817327,472.789737 C208.924172,472.789737 207.635554,470.78812 206.9992,469.010685 C203.021984,459.066655 202.576536,448.097798 202.79926,437.401161 C203.021984,426.704523 203.881063,415.927821 202.306086,405.3753 C201.945587,403.944228 201.99523,402.43964 202.449265,401.035796 C203.253815,399.679459 204.469415,398.618673 205.917397,398.009352 L222.351252,389.20224 C225.644386,387.424805 233.169278,375.70334 235.428336,381.019633 C237.130584,384.990839 231.498847,399.946916 230.162503,403.709955 C228.092082,409.023485 226.557128,414.532897 225.580751,420.155235 L225.580751,420.155235 Z" id="Path" fill="url(#linearGradient-6)" fill-rule="nonzero"></path>
                <path d="M195.866376,480.166846 C205.104108,473.552999 212.084258,464.225818 215.850494,453.463194 C222.347716,434.818607 218.821107,413.039939 228.749623,395.994374 C231.132467,391.90088 234.293707,388.12719 235.421587,383.52201 C236.549466,378.916829 234.722619,373.032431 230.147559,371.865146 C225.572498,370.69786 221.251607,374.823335 218.169796,378.581034 L202.395368,397.769288 C202.204741,396.170267 202.204741,380.835654 202.395368,375.734777 C186.176143,376.534287 171.910851,389.774182 167.891787,405.620481 C166.57579,411.494856 165.978293,417.509159 166.112597,423.529518 C166.112597,429.7657 166.303224,436.017873 166.668594,442.254055 C167.010102,446.276257 167.010102,450.320453 166.668594,454.342655 C165.350087,465.679715 158.21744,475.449734 155.215057,486.450999 C155.05633,486.900953 155.05633,487.392194 155.215057,487.842148 C155.441921,488.233412 155.786984,488.541531 156.199966,488.721609 C160.854454,491.216082 166.287339,491.695789 171.561367,491.919652 C176.835395,492.143515 182.522449,492.335397 188.018876,492.287426 C189.068315,492.365938 190.120898,492.184778 191.084802,491.759749 C192.991077,490.736376 193.419989,488.209923 193.626502,486.035254" id="Path" fill="#FFFFFF" fill-rule="nonzero"></path>
                <path d="M343.35628,463.353044 C332.731025,443.269316 338.51218,417.572322 328.109277,397.377284 C325.456934,392.241066 321.756359,387.23206 321.756359,381.475679 C321.549986,380.091916 322.097465,378.703158 323.192163,377.833554 C324.286862,376.963949 325.762084,376.74592 327.061046,377.261754 C335.81219,378.661095 340.576878,388.392877 348.486261,392.400082 L347.898616,377.357163 C357.159987,378.577067 365.807421,382.669714 372.627349,389.060745 C375.746218,391.855665 378.245764,395.273697 379.964969,399.094657 C381.534286,403.222329 382.377921,407.590889 382.458489,412.006761 C383.046134,422.517722 382.18849,433.092289 382.919076,443.587348 C383.649661,454.082408 386.095534,464.863696 392.623158,473.164334 C396.133145,477.664488 400.993127,482.116938 400.564305,487.793811 C400.573926,488.230266 400.43378,488.656828 400.167247,489.002333 C399.720722,489.362492 399.148717,489.528575 398.579018,489.463479 C392.331982,489.527086 386.09024,489.479381 379.853793,489.320365 C374.676165,489.17725 364.940318,490.592493 360.255041,488.429875 C356.903877,486.839714 354.902708,480.479072 352.599775,477.171538 C349.25596,472.747037 346.169675,468.133218 343.35628,463.353044 Z" id="Path" fill="#FFFFFF" fill-rule="nonzero"></path>
                <path d="M262.061851,406.154086 C263.784261,413.297239 268.498101,419.367313 275.014353,422.833192 C278.940329,424.848118 283.445547,425.695666 287.451973,423.920612 C293.260486,421.345985 296.8003,413.718052 297.572623,406.138094 C298.344946,398.558136 296.86466,390.946195 295.384374,383.542143 C295.176353,381.39239 294.368309,379.343117 293.051315,377.625298 C292.094077,376.757348 290.913205,376.170531 289.640221,375.930202 C282.818034,374.139157 268.803588,372.364103 263.332966,379.416343 C259.16564,384.741503 260.533295,399.885428 262.061851,406.154086 Z" id="Path" fill="#FFFFFF" fill-rule="nonzero"></path>
                <path d="M248.153619,333.672442 L248.153619,379.031151 C248.153619,379.031151 248.458122,399.178111 280.575136,401.710505 C312.692151,404.2429 309.550965,363.596368 309.550965,363.596368 L310.192024,329.937962 C310.192024,329.937962 256.022608,322.020223 248.153619,333.672442 Z" id="Path" fill="#FFFFFF" fill-rule="nonzero"></path>
                <path d="M252.297707,344.107194 C251.852373,344.701505 250.977611,344.701505 250.277801,344.942443 C248.321515,345.601004 247.621705,347.994312 247.2718,350.050309 C246.423524,355.146349 245.892324,360.29107 245.681323,365.454221 L240.257797,350.757058 C238.898634,347.562842 238.00401,344.18691 237.601701,340.734074 C237.193345,337.229724 238.300378,333.717651 240.639511,331.09659 C241.349741,330.495298 241.980497,329.804304 242.516274,329.040594 C242.961953,328.026318 243.215503,326.936686 243.263798,325.828099 C244.039187,321.868632 246.2372,318.33868 249.434849,315.917553 C252.627752,313.538173 256.206867,311.739024 260.01152,310.600874 C274.009416,305.76033 289.190737,305.675718 303.240682,310.359937 C307.868969,311.966184 312.592686,314.487993 314.755734,318.921235 C315.795964,321.311223 316.337381,323.892052 316.346211,326.502723 C316.790094,337.261132 314.25072,347.931008 309.014113,357.310547 C309.521203,350.302244 308.761302,343.259244 306.77154,336.525706 C307.582684,339.240264 277.236385,340.204013 274.580288,339.882763 C269.140857,339.256327 264.14676,337.20033 258.834567,336.300832 C256.862376,335.96352 255.653613,335.754708 254.269898,337.32883 C252.40904,339.240264 253.633708,342.388509 252.297707,344.107194 Z" id="Path" fill="#222222" fill-rule="nonzero"></path>
                <path d="M260.199248,376.426947 C262.8675,372.672662 267.038757,370.313489 271.587484,369.986007 C276.071249,369.688767 280.573531,370.079618 284.942491,371.145376 C288.352617,371.805573 292.048243,372.626792 294.221207,375.364192 C295.807313,377.360884 296.299005,380.033874 297.615473,382.223794 C298.93194,384.413714 301.882096,386.104461 303.959894,384.606942 C304.308837,388.455404 301.358681,391.659772 299.027106,394.703117 C296.695531,397.746461 294.792205,401.224569 291.540689,403.140749 C289.186283,404.355095 286.598443,405.031134 283.959106,405.121338 C277.926885,405.811836 271.819111,405.073264 266.11542,402.963623 C263.434994,401.886593 260.956441,400.350694 258.787614,398.42276 C257.328397,397.118469 253.347272,393.414928 253.474161,391.208906 C253.474161,390.258868 254.885795,389.260522 255.440931,388.374892 C256.159949,387.114379 256.734678,385.774554 257.153925,384.381509 C257.846434,381.614068 258.869105,378.942793 260.199248,376.426947 Z" id="Path" fill="#222222" fill-rule="nonzero"></path>
                <path d="M269.64983,380.567668 C270.624545,379.639202 271.923123,379.130099 273.267609,379.149332 C277.139059,378.73056 281.039481,378.649669 284.924897,378.90757 C286.24201,378.911032 287.542504,379.202555 288.735625,379.761795 C291.581611,381.373541 292.128297,385.096674 292.353404,388.320166 C292.629094,389.961613 292.39913,391.6483 291.694164,393.155403 C290.494886,394.723907 288.703116,395.726898 286.741826,395.927606 C281.516145,396.975241 274.505694,396.749596 269.794541,393.896806 C268.229512,393.007257 267.397324,391.222506 267.720348,389.448388 C267.897217,387.079121 268.122323,382.469528 269.64983,380.567668 Z" id="Path" fill="#F2F2F2" fill-rule="nonzero"></path>
                <path d="M178.819864,532.732833 C178.595293,533.724474 178.370723,534.764098 178.065949,535.771733 C154.550232,532.988741 136.039224,529.933846 126.735598,528.270448 C126.915916,525.056306 127.682359,521.901864 128.997342,518.961817 C132.507384,510.370929 136.601958,502.029185 141.252463,493.994854 C142.28162,491.759908 143.957466,489.882835 146.064684,488.604805 C148.282948,487.821003 150.674664,487.660542 152.97824,488.140972 C162.265826,489.244573 185.637176,488.8927 189.968174,499.656805 C193.36881,507.925812 180.744752,523.808063 178.819864,532.732833 Z" id="Path" fill="#222222" fill-rule="nonzero"></path>
                <path d="M413.872569,506.819778 C413.65696,507.807872 413.18222,508.722047 412.496298,509.469967 L412.496298,509.469967 C395.901034,518.769434 379.673842,526.101096 364.566871,530.449311 C363.964202,529.756742 363.541202,528.928708 363.334629,528.037163 C359.931293,517.341189 356.527957,506.634635 353.124621,495.917502 C351.988397,492.299279 350.932189,487.982803 353.124621,484.951748 C355.317052,481.920693 360.166006,481.492219 364.182796,481.587436 C374.280782,481.587436 390.876046,479.207026 400.333906,482.587208 C408.911593,485.665871 410.047817,495.108163 413.136424,503.217425 C413.691753,504.334901 413.945388,505.576076 413.872569,506.819778 L413.872569,506.819778 Z" id="Path" fill="#222222" fill-rule="nonzero"></path>
            </g>
        </g>
    </g>
</svg>